<?xml version="1.0" encoding="utf-8"?>
<!-- Generator: Adobe Illustrator 23.0.2, SVG Export Plug-In . SVG Version: 6.00 Build 0)  -->
<svg version="1.1"
	 id="svg2" xmlns:cc="http://creativecommons.org/ns#" xmlns:dc="http://purl.org/dc/elements/1.1/" xmlns:rdf="http://www.w3.org/1999/02/22-rdf-syntax-ns#" xmlns:svg="http://www.w3.org/2000/svg"
	 xmlns="http://www.w3.org/2000/svg" xmlns:xlink="http://www.w3.org/1999/xlink" x="0px" y="0px" viewBox="0 0 603.6 596.6"
	 style="enable-background:new 0 0 603.6 596.6;" xml:space="preserve">
<style type="text/css">
	.st0{fill-rule:evenodd;clip-rule:evenodd;}
</style>
<g id="g10" transform="matrix(1.25,0,0,-1.25,-76.874057,859.83875)">
	<g id="g12" transform="scale(0.1,0.1)">
		<path id="path14" class="st0" d="M3331.8,6440.2c22.4-283,616.4-152.1,652.7,71.4c29,178.5-96.3,248.8-305.9,214.2
			C3527.9,6700.9,3316.8,6629.4,3331.8,6440.2 M3709.1,6878.7h102c217.2-41.3,357.2-160,316.1-397.7
			c-60.8-351.5-819-492-917.8-122.4C3117.7,6701.6,3460.4,6830.3,3709.1,6878.7"/>
		<path id="path16" class="st0" d="M2169.2,6419.8c-5.6,15.9-27.6,31.2-30.6,51c-13.6,91.5,431.3,317.3,530.3,367.1
			c40.6,20.4,90.2-50.4,91.8-61.2c13.7-94.4-207.4-163.5-275.3-204C2370.8,6504.5,2311.9,6430.5,2169.2,6419.8"/>
		<path id="path18" class="st0" d="M2301.8,6154.7c-6.7,13.7-21.8,19-40.8,20.4c-50.5,117.3,107.6,170.6,234.6,244.8
			c124.4,72.6,193.2,119.9,265.1,153c49.1,22.5,110.8-21.2,112.2-61.2c2.6-73.9-205.9-168.5-265.1-204
			C2490.8,6237.7,2414.6,6197.7,2301.8,6154.7"/>
		<path id="path20" class="st0" d="M1904.1,6562.6c75.3-191.7,109.8-431,122.4-662.8c-131.7-19.9-238.9,60.6-336.5,112.2
			c-100.7,53.1-192.5,116.6-295.7,163.1c-18.7-185.2,10.1-418-51-560.9h-71.4c-59.5,106.7-27.6,300-20.4,458.9
			c5.2,114.7-20.6,248.8,61.2,295.8c203.6-78.5,369.7-194.6,560.9-285.5c-32.7,160.1-64.8,279.1-71.4,448.7
			C1824,6554.4,1851.6,6570.8,1904.1,6562.6"/>
		<path id="path22" class="st0" d="M4688,6481c65.8-192.6,118.3-398.3,173.4-601.6c52.7,38,97.9,114.4,163.2,193.7
			c62.4,75.9,138.5,221.8,244.7,163.2c20-140.3-118.1-236.9-193.8-326.3c-75.2-88.9-135.4-242.5-275.3-254.9
			c-95.5,186.6-129.2,435.1-204,642.4c-71.7-41-157.9-112.3-265.1-193.8c-91.3-69.4-249.3-249.7-326.3-122.4
			c40.5,130.9,180,180.3,275.3,254.9c100.5,78.7,195,161.8,295.7,234.5c2.5,11.1,20.3,6.9,20.4,20.4
			C4633.4,6494.3,4662.6,6489.6,4688,6481"/>
		<path id="path24" class="st0" d="M2414,5889.5c-19.1,25.7-45.3,30-40.8,81.6c5.6,63.9,422.5,280.8,509.9,336.5
			c47.1,30.1,100.5-45.1,102-51c23.2-93.5-193.8-177.5-254.9-214.2C2612.6,5972,2545.6,5915.3,2414,5889.5"/>
		<path id="path26" class="st0" d="M3892.6,6011.9c11.7-28.6,11.7-53,0-81.6c-221.9-41.9-471.6,22.3-693.4,61.2
			c-22.2,19.7-29.8,130.8,51,122.4C3393.2,6098.9,3791.8,6066.5,3892.6,6011.9"/>
		<path id="path28" class="st0" d="M3964,4237.5c-10.3,77.9-63.1,203.5-122.4,244.8c-264.9,183.8-459.7-387.4-30.6-275.4
			c120.4-183.2-28.4-416.6-112.2-550.7C3840.4,3773.8,3998.2,3979.3,3964,4237.5 M2189.6,4604.6c-160.7,121-367.2-60.6-265.1-265.1
			c84.9-1.1,94.2,65.1,183.5,40.8c227.9-62-51.2-554-122.4-611.8C2277.5,3792.7,2410.9,4438.1,2189.6,4604.6 M3862.1,4900.4
			c-62-55.3-156.6-116.6-275.4-112.1c-175.9,6.5-258.9,162.8-377.3,234.5c-526.1,318.3-1349.6,219.6-1774.4-153
			c-164.3-144.1-313.7-349.1-265.2-662.9c20.6,601.5,827.9,891,1213.5,520c162.6-156.3,226.7-420.7,428.3-499.6
			c338.2-132.5,432.9,245,622,356.9c132.1,78.1,386.6,108.8,530.3,30.6c53.1-29,85.1-107.4,163.1-142.8
			c102.6-46.5,215.3-21.6,326.3,10.3c-100.6,138.7-342.5,222.2-346.7,438.5c-1.3,65.9,31.6,95,30.6,173.4
			C3971.8,5165.4,3948.1,4977,3862.1,4900.4 M4198.5,5022.7c-45.8-255.5,218.7-490.8,458.9-458.9c155,20.5,223.6,157.2,316.1,265.1
			c-91.2-46.5-173.5-134.9-295.7-153c-198.2-29.2-397.1,93.7-387.5,295.8c5,105.9,92.3,187.6,153,234.5
			c43.6,33.8,118.6,54.9,102,81.6C4390.6,5237.9,4226.1,5176.3,4198.5,5022.7 M5432.4,4594.4c21.8-110.4,10.8-179.2-18.1-288.5
			c-29.3-110.3-69.2-218.8-134.8-313.1c-780.1-1120.6-3713.2-1140.8-4507.3,0c-160.2,230.1-204.2,525.8-103,785.4
			c44.7,114.6,112.7,218.9,194,310.8c167,188.6,386.2,326.8,612.5,433.4c816.4,384.5,1988.9,428.8,2885.9,91.8
			c59.7,0,153.7-61.2,208-86c69.2-31.6,137.2-65.9,203.2-103.8c125.9-72.2,245.1-157.6,347.7-260.7
			c100.2-100.6,183.2-217.7,240.6-347.7c30.1-68.2,54.2-140,69.4-213C5431.3,4600.2,5431.9,4597.3,5432.4,4594.4"/>
		<path id="path30" class="st0" d="M4473.9,2973c-38.3,87.7,111.9,184.3,224.3,275.3c124.1,100.6,164.7,158.7,265.1,204
			c45.4,20.4,90.2-50.9,91.8-61.1c11.9-77.9-221.2-228.8-265.1-265.1C4684.2,3038.4,4591,2919.6,4473.9,2973"/>
		<path id="path32" class="st0" d="M1802.1,3034.2c-113.2-22-200.7,62.3-295.7,91.8c-102.1-153.3-222.6-322.8-336.5-489.5
			c-32.8-48-58.6-143.8-153-91.7c-1.4,18.9-6.7,34.1-20.4,40.7c95.8,223.8,250,389.1,367.1,591.5c-74,47.9-315.3,89.6-183.6,214.2
			c96.5,1.4,188.6-60.2,336.5-122.4C1646.7,3214.1,1883.1,3187.7,1802.1,3034.2"/>
		<path id="path34" class="st0" d="M5157.1,3156.6c79.2-104.1-157.1-236.4-244.8-305.9c-111.1-88.3-217.9-222.5-326.3-142.8
			c14.8,134.6,164.8,195.1,255,265.1C4931.4,3043.2,5023.6,3173.2,5157.1,3156.6"/>
		<path id="path36" class="st0" d="M2363,2830.3c0.8,74.9-130.6,105.5-234.5,112.1c-33.6-71.8-62.7-148.1-91.8-224.3
			C2167.4,2727.3,2361.9,2732.3,2363,2830.3 M2393.6,2106.2h-40.8c-142.9,146.1-227.6,350.2-367.1,499.7
			c-52.7-66.4-85.7-392.9-204-377.3c-105.3,13.9-32.8,147.6-10.2,203.9c91.4,228.2,179.6,510.6,285.5,662.9
			c233.9-8,471.9-86.7,448.7-295.7c-16.7-150.7-179-173.1-316.1-224.4C2228.2,2461.9,2539.7,2212.6,2393.6,2106.2"/>
		<path id="path38" class="st0" d="M3770.3,2911.8c39.5-205.2,74.8-414.7,112.2-622c111.7,34.1,317.6,44.2,305.9,173.3
			c-11.1,122.5-238.6,81.3-285.6,153c-63.2,96.4,65.4,107.6,102,132.6c53.7,36.5,102.3,96.1,61.2,173.3
			C3980.4,2963.1,3858,2929.1,3770.3,2911.8 M4147.6,2687.5c118.5-60.6,225.4-164.7,173.4-316.1
			c-60.4-175.6-363.1-223.2-540.5-224.4c-72.4,233.7-121.6,569.4-153,836.2c96,90.7,348.9,133.1,479.3,81.6
			C4234.6,3014.4,4266.1,2763.5,4147.6,2687.5"/>
		<path id="path40" class="st0" d="M3372.6,2922c-27-68.6-156.4-58.1-204-51c-67.8-183.7-105.3-397.8-163.2-591.5
			c69.8-28.4,221.5-18.9,163.2-142.7c-134.4-47.1-316.4,19.3-458.9,30.6c-14,42.8-26.6,74.2,0,112.1c42.1,31.7,78.8,6.5,142.8,10.3
			c68.3,169.6,104.3,371.6,153,560.9c-46.3,28.4-160.3-10.9-193.7,30.6c1.6,11.9-2.3,18.1-10.2,20.4
			c-18.6,144.6,200.6,102,367.1,102C3282.5,3003.6,3386.8,3006.3,3372.6,2922"/>
		<path id="path42" class="st0" d="M5238.7,2901.7c255.8-37.6-83-260.7-153-316.2c-42.3-33.5-329.4-308.3-356.9-142.7
			c-12.2,73.1,178,189.8,234.5,234.5C5073.4,2764.3,5153.3,2834.4,5238.7,2901.7"/>
	</g>
</g>
</svg>
