<?xml version="1.0" encoding="UTF-8"?>
<svg width="185px" height="176px" viewBox="0 0 185 176" version="1.1" xmlns="http://www.w3.org/2000/svg" xmlns:xlink="http://www.w3.org/1999/xlink">
    <!-- Generator: Sketch 63.1 (92452) - https://sketch.com -->
    <title>Group 2</title>
    <desc>Created with Sketch.</desc>
    <g id="Page-1" stroke="none" stroke-width="1" fill="none" fill-rule="evenodd">
        <g id="Desktop-HD-Copy-4" transform="translate(-637.000000, -417.000000)" fill-rule="nonzero" stroke-width="2">
            <g id="Group-2" transform="translate(638.000000, 419.000000)">
                <g id="Group">
                    <path d="M182.75,87.2534661 C182.75,111.466761 174.010461,131.876857 156.776188,147.945681 C141.561557,162.143477 122.63813,170.141202 100.556718,171.730963 L96.75,172 L96.75,135.007465 L99.9079846,134.652826 C110.895883,133.702822 121.205464,128.944293 129.052021,121.200995 C138.342371,112.029293 143.042627,100.069392 143.042627,85.6392464 C143.042627,71.2091006 138.146527,59.4081763 128.476729,50.0774973 C120.69845,42.5011108 110.625721,37.7145357 99.8345431,36.4666904 L96.75,36.0753644 L96.75,0 L100.519997,0.256807679 C122.748292,1.62644863 141.818602,9.88098116 157.192357,24.8125133 C174.145104,41.3215784 182.75,62.3308923 182.75,87.2534661 Z" id="Path" stroke="#FF00AE"></path>
                    <path d="M43.3672075,66.0118023 C40.8776664,72.2322281 39.6302141,78.8791574 39.6951324,85.5781017 C39.6951324,100.008247 44.4076288,111.968148 53.6857387,121.139851 C61.5406043,128.871161 71.8456265,133.627586 82.8297751,134.591681 L86,134.946321 L86,172 L82.1810418,171.730963 C60.1485909,170.141202 41.2006832,162.155706 25.9615713,147.970139 C8.72729861,131.913544 0,111.491219 0,87.2534661 C0,62.3308923 8.56817535,41.3215784 25.557643,24.8125133 C40.9313977,9.88098116 59.9894677,1.57753288 82.2177626,0.256807679 L86,0 L86,36.0753644 L82.9154569,36.4666904 C72.1250537,37.7172299 62.0531531,42.5034112 54.2732707,50.0774973 C49.5638468,54.5695937 45.8486858,59.9976302 43.3672075,66.0118023 Z" id="Path" stroke="#00ECCD"></path>
                </g>
            </g>
        </g>
    </g>
</svg>