<svg xmlns="http://www.w3.org/2000/svg" viewBox="0 0 404.36 379.62">
  <defs>
    <style>
      .cls-1 {fill: #ff37ab;}
      .cls-2 {fill: #00edcd;}
    </style>
  </defs>
  <path class="cls-1" d="M341.78,61.21Q293.3,14.07,222.56,9.53V73.44q39.39,5.07,67.18,32,34.32,33.13,34.32,83.62,0,50.94-33,83.53-27.6,27.36-68.49,31.69V370q70.32-5.07,118.48-50,54.33-50.7,54.37-127.45Q395.41,113.5,341.78,61.21Z"/>
  <path class="cls-1" d="M216.12,376.9V298.45l5.76-.61c25.66-2.73,47.41-12.78,64.65-29.86,20.63-20.4,31.1-47,31.1-79,0-31.69-10.89-58.27-32.36-79-17.41-16.86-38.79-27-63.53-30.2l-5.62-.72V2.68l6.84.43c48.43,3,89.92,21,123.3,53.48h0c36.87,35.95,55.57,81.68,55.57,135.9,0,52.76-19,97.23-56.41,132.16C312.27,355.54,271.08,373,223,376.41Zm12.87-67V363c42.11-4.35,78.3-20.38,107.67-47.73C371.37,282.85,389,241.56,389,192.5c0-50.62-17.39-93.25-51.68-126.68-29.54-28.72-66-45.29-108.3-49.33V67.9a121.2,121.2,0,0,1,65.22,32.87C318.28,124,330.49,153.71,330.49,189c0,35.57-11.74,65.21-34.91,88.1C277.53,295,255.15,306,229,309.9Z"/>
  <path class="cls-1" d="M220,372.7V302l2.26-.24c26.57-2.83,49.11-13.25,67-31,21.4-21.16,32.26-48.66,32.26-81.74,0-32.78-11.29-60.31-33.56-81.81-18-17.46-40.14-28-65.74-31.26L220,75.66V6.85l2.69.17c47.47,3,88.12,20.59,120.82,52.38h0c36.09,35.19,54.39,80,54.39,133.1,0,51.64-18.56,95.14-55.17,129.3-32.49,30.25-72.87,47.31-120,50.71Zm5.05-66.21v60.77C269.9,363.5,308.32,347,339.32,318.1c35.54-33.16,53.56-75.42,53.56-125.6C392.88,140.78,375.1,97.22,340,63h0c-31.19-30.33-69.85-47.4-114.94-50.78v59c25.78,3.74,48.11,14.62,66.41,32.34,23.29,22.48,35.1,51.23,35.1,85.44,0,34.48-11.36,63.19-33.76,85.32C274.62,292.39,251.84,303.2,225.08,306.49Z"/>
  <path class="cls-1" d="M213.6,379.62V296.18l8-.85c25.07-2.67,46.31-12.47,63.13-29.14,20.14-19.91,30.36-45.87,30.36-77.17,0-31-10.63-56.94-31.6-77.18-17-16.48-37.9-26.4-62.1-29.51l-7.81-1V0l9.52.59C272.18,3.67,314.2,21.9,348,54.78c37.39,36.46,56.34,82.79,56.34,137.72,0,53.49-19.25,98.57-57.21,134-33.59,31.29-75.29,48.92-123.95,52.43Zm17.92-67.56v48.09c40.35-4.69,75.12-20.4,103.41-46.76,34.19-31.89,51.52-72.56,51.52-120.89,0-49.92-17.14-91.93-50.93-124.88C307.07,40,272.1,23.71,231.52,19.29v46.5A123.52,123.52,0,0,1,296,99c24.58,23.73,37,54,37,90.06,0,36.27-12,66.51-35.67,89.9C279.42,296.69,257.29,307.83,231.52,312.06Z"/>
  <path class="cls-2" d="M62.58,61.21Q111.07,14.07,181.8,9.53V73.44q-39.37,5.07-67.17,32Q80.29,138.54,80.3,189q0,50.94,33,83.53,27.6,27.36,68.49,31.69V370q-70.31-5.07-118.48-50Q9,269.25,9,192.5,9,113.5,62.58,61.21Z"/>
  <path class="cls-2" d="M188.24,376.9l-6.9-.49C133.28,373,92.1,355.54,58.94,324.66,21.5,289.73,2.52,245.27,2.52,192.5c0-54.23,18.7-99.95,55.58-135.9h0C91.48,24.14,133,6.14,181.4,3.11l6.84-.43V79.1l-5.62.72C157.88,83,136.5,93.16,119.1,110c-21.48,20.74-32.37,47.31-32.37,79,0,32,10.47,58.56,31.1,79,17.24,17.09,39,27.14,64.65,29.87l5.76.61ZM67.07,65.82C32.78,99.26,15.39,141.88,15.39,192.5c0,49.06,17.6,90.35,52.32,122.75,29.37,27.34,65.55,43.37,107.66,47.72V309.9C149.21,306,126.83,295,108.78,277.12,85.62,254.23,73.87,224.59,73.87,189c0-35.31,12.21-65,36.29-88.25A121.17,121.17,0,0,1,175.37,67.9V16.49C133,20.53,96.61,37.1,67.07,65.82Z"/>
  <path class="cls-2" d="M184.33,372.7l-2.71-.19c-47.15-3.4-87.53-20.46-120-50.71C25,287.64,6.43,244.14,6.43,192.5c0-53.13,18.3-97.91,54.39-133.1h0C93.52,27.61,134.17,10,181.65,7l2.68-.17V75.66l-2.2.29c-25.61,3.29-47.73,13.8-65.75,31.26-22.27,21.5-33.55,49-33.55,81.81,0,33.09,10.85,60.58,32.25,81.73,17.89,17.73,40.42,28.15,67,31l2.26.24ZM64.35,63C29.27,97.22,11.48,140.78,11.48,192.5c0,50.18,18,92.44,53.57,125.61,31,28.86,69.42,45.39,114.23,49.15V306.49c-26.76-3.29-49.54-14.1-67.75-32.15C89.13,252.21,77.78,223.5,77.78,189c0-34.21,11.81-63,35.09-85.44,18.3-17.72,40.64-28.6,66.41-32.34v-59C134.19,15.62,95.53,32.69,64.34,63Z"/>
  <path class="cls-2" d="M190.76,379.62l-9.6-.69c-48.65-3.51-90.35-21.14-123.94-52.42C19.25,291.08,0,246,0,192.5,0,137.57,19,91.23,56.33,54.79,90.17,21.9,132.19,3.66,181.24.59L190.76,0V81.32l-7.81,1c-24.2,3.11-45.09,13-62.09,29.5-21,20.25-31.6,46.21-31.6,77.19,0,31.3,10.21,57.26,30.35,77.16,16.82,16.68,38.07,26.48,63.14,29.15l8,.85ZM68.83,67.63c-33.78,32.94-50.92,75-50.92,124.87,0,48.32,17.34,89,51.53,120.9,28.29,26.35,63.05,42.06,103.4,46.75V312.06c-25.77-4.23-47.9-15.37-65.84-33.15C83.35,255.53,71.34,225.29,71.34,189c0-36,12.47-66.33,37.07-90.07a123.44,123.44,0,0,1,64.43-33.16V19.29C132.26,23.71,97.29,40,68.83,67.63Z"/>
</svg>