
<svg xmlns="http://www.w3.org/2000/svg" width="176.999" height="382.32" viewBox="0 0 176.999 382.32">
    <defs>
        <linearGradient id="fr0p3yl76a" x1=".5" x2=".5" y2="1" gradientUnits="objectBoundingBox">
            <stop offset="0" stop-color="#48e9ce"/>
            <stop offset="1" stop-color="#ff37ab"/>
        </linearGradient>
    </defs>
    <g data-name="Group 97">
        <path data-name="Path 44" d="M320.708 103.546a39.058 39.058 0 0 1 2.79 14.878c0 10.973-3.58 20.067-10.629 27.042a36.044 36.044 0 0 1-22.141 10.234l-2.408.27v28.176l2.9-.2c16.738-1.209 31.133-7.281 42.71-18.068 13.093-12.21 19.723-27.739 19.723-46.17 0-18.951-6.509-34.927-19.416-47.481-11.68-11.354-26.158-17.668-43.045-18.672l-2.873-.2v27.427l2.343.3a37.346 37.346 0 0 1 21.76 10.35 35.414 35.414 0 0 1 8.286 12.114z" transform="rotate(-90 250.477 280.177)" style="fill:#48e9ce"/>
        <path data-name="Path 45" d="M320.708 103.546a39.058 39.058 0 0 1 2.79 14.878c0 10.973-3.58 20.067-10.629 27.042a36.044 36.044 0 0 1-22.141 10.234l-2.408.27v28.176l2.9-.2c16.738-1.209 31.133-7.281 42.71-18.068 13.093-12.21 19.723-27.739 19.723-46.17 0-18.951-6.509-34.927-19.416-47.481-11.68-11.354-26.158-17.668-43.045-18.672l-2.873-.2v27.427l2.343.3a37.346 37.346 0 0 1 21.76 10.35 35.414 35.414 0 0 1 8.286 12.114z" transform="rotate(-90 320.47 350.17)" style="fill:#48e9ce"/>
        <path data-name="Path 43" d="M321.266 103.546a39.056 39.056 0 0 0-2.79 14.878c0 10.973 3.58 20.067 10.629 27.042a36.043 36.043 0 0 0 22.141 10.234l2.408.27v28.176l-2.9-.2c-16.738-1.209-31.133-7.281-42.71-18.068-13.093-12.21-19.723-27.739-19.723-46.17 0-18.951 6.509-34.927 19.416-47.481 11.679-11.354 26.158-17.668 43.045-18.672l2.873-.2v27.427l-2.343.3a37.345 37.345 0 0 0-21.76 10.35 35.413 35.413 0 0 0-8.286 12.114z" transform="rotate(-90 287.802 317.502)" style="fill:#ff37ab"/>
        <g data-name="Group 84" transform="rotate(-90 88.5 88.5)">
            <circle data-name="Ellipse 3" cx="65.438" cy="65.438" transform="rotate(-62.03 96.112 57.798)" style="fill:url(#fr0p3yl76a)" r="65.438"/>
            <circle data-name="Ellipse 4" cx="37.224" cy="37.224" transform="rotate(-62.03 105.493 20.227)" r="37.224"/>
        </g>
    </g>
</svg>