
<svg xmlns="http://www.w3.org/2000/svg" width="375.121" height="173.666" viewBox="0 0 375.121 173.666">
    <defs>
        <linearGradient id="cir1aroeka" x1=".5" x2=".5" y2="1" gradientUnits="objectBoundingBox">
            <stop offset="0" stop-color="#48e9ce"/>
            <stop offset="1" stop-color="#ff37ab"/>
        </linearGradient>
    </defs>
    <g data-name="Group 97">
        <path data-name="Path 44" d="M320.1 102.6a38.322 38.322 0 0 1 2.737 14.6c0 10.766-3.513 19.689-10.429 26.532a35.365 35.365 0 0 1-21.724 10.036l-2.363.265v27.646l2.846-.2c16.423-1.186 30.547-7.144 41.906-17.728 12.847-11.98 19.352-27.217 19.352-45.3 0-18.595-6.387-34.27-19.051-46.587-11.46-11.14-25.666-17.336-42.235-18.321l-2.819-.192v26.915l2.3.292a36.642 36.642 0 0 1 21.35 10.155 34.748 34.748 0 0 1 8.13 11.887z" transform="rotate(180 263.046 101.906)" style="fill:#48e9ce"/>
        <path data-name="Path 45" d="M320.1 102.6a38.322 38.322 0 0 1 2.737 14.6c0 10.766-3.513 19.689-10.429 26.532a35.365 35.365 0 0 1-21.724 10.036l-2.363.265v27.646l2.846-.2c16.423-1.186 30.547-7.144 41.906-17.728 12.847-11.98 19.352-27.217 19.352-45.3 0-18.595-6.387-34.27-19.051-46.587-11.46-11.14-25.666-17.336-42.235-18.321l-2.819-.192v26.915l2.3.292a36.642 36.642 0 0 1 21.35 10.155 34.748 34.748 0 0 1 8.13 11.887z" transform="rotate(180 331.72 101.906)" style="fill:#48e9ce"/>
        <path data-name="Path 43" d="M320.646 102.6a38.321 38.321 0 0 0-2.737 14.6c0 10.766 3.513 19.689 10.429 26.532a35.364 35.364 0 0 0 21.724 10.036l2.363.265v27.646l-2.846-.2c-16.423-1.186-30.547-7.144-41.906-17.728-12.846-11.98-19.352-27.217-19.352-45.3 0-18.595 6.387-34.27 19.05-46.587 11.459-11.14 25.665-17.335 42.234-18.321l2.819-.192v26.915l-2.3.292a36.642 36.642 0 0 0-21.35 10.155 34.746 34.746 0 0 0-8.128 11.887z" transform="rotate(180 299.668 101.906)" style="fill:#ff37ab"/>
        <g data-name="Group 84" transform="rotate(180 86.833 86.833)">
            <circle data-name="Ellipse 3" cx="64.206" cy="64.206" transform="rotate(-62.03 94.302 56.71)" style="fill:url(#cir1aroeka)" r="64.206"/>
            <circle data-name="Ellipse 4" cx="36.523" cy="36.523" transform="rotate(-62.03 103.506 19.846)" r="36.523"/>
        </g>
    </g>
</svg>