
<svg xmlns="http://www.w3.org/2000/svg" width="158.93" height="148.492" viewBox="0 0 158.93 148.492">
  <g id="Group_96" data-name="Group 96" transform="translate(-989.535 -242)">
    <path id="Path_31" data-name="Path 31" d="M325.725,110.34a44.344,44.344,0,0,0-3.167,16.892c0,12.458,4.065,22.783,12.067,30.7a40.921,40.921,0,0,0,25.137,11.613l2.734.306v31.989l-3.294-.232c-19-1.373-35.346-8.267-48.49-20.513-14.865-13.862-22.392-31.493-22.392-52.418,0-21.516,7.39-39.654,22.044-53.907,13.26-12.891,29.7-20.059,48.87-21.2l3.262-.222V84.495l-2.66.338a42.4,42.4,0,0,0-24.7,11.751A40.207,40.207,0,0,0,325.725,110.34Z" transform="translate(701.215 188.65)" fill="#48e9ce"/>
    <path id="Path_32" data-name="Path 32" d="M325.091,110.339a44.342,44.342,0,0,1,3.167,16.892c0,12.458-4.065,22.783-12.067,30.7a40.92,40.92,0,0,1-25.137,11.613l-2.734.306v31.989l3.294-.232c19-1.372,35.346-8.266,48.49-20.513C354.968,167.234,362.5,149.6,362.5,128.678c0-21.516-7.39-39.654-22.044-53.907-13.26-12.891-29.7-20.059-48.87-21.2l-3.262-.222V84.495l2.66.338a42.4,42.4,0,0,1,24.7,11.751A40.205,40.205,0,0,1,325.091,110.339Z" transform="translate(785.97 188.65)" fill="#ff37ab"/>
  </g>
</svg>
