
<svg xmlns="http://www.w3.org/2000/svg" width="191.441" height="136.052" viewBox="0 0 191.441 136.052">
    <g data-name="Group 59">
        <path data-name="Path 37" d="M431.753 118.094c0 17.967-6.479 33.111-19.255 45.035-11.278 10.535-25.307 16.47-41.676 17.649l-2.822.2v-27.45l2.341-.263a35.044 35.044 0 0 0 21.605-9.982c6.887-6.806 10.371-15.68 10.371-26.387s-3.63-19.464-10.8-26.387a36.412 36.412 0 0 0-21.233-10.1l-2.284-.29V53.35l2.795.191c16.478 1.016 30.615 7.141 42.012 18.221 12.567 12.249 18.946 27.838 18.946 46.332z" transform="rotate(90 270.246 -25.455)" style="fill:#ff37ab"/>
        <path data-name="Path 38" d="M320.469 102.332a38.116 38.116 0 0 0-2.722 14.519c0 10.708 3.493 19.582 10.371 26.388a35.169 35.169 0 0 0 21.605 9.982l2.35.263v27.495l-2.831-.2c-16.333-1.18-30.379-7.105-41.676-17.631-12.776-11.914-19.245-27.068-19.245-45.053 0-18.493 6.352-34.082 18.946-46.332 11.4-11.079 25.525-17.241 42-18.221l2.8-.191v26.768l-2.286.29a36.441 36.441 0 0 0-21.233 10.1 34.558 34.558 0 0 0-8.079 11.823z" transform="rotate(90 234.648 -53.671)" style="fill:#48e9ce"/>
    </g>
</svg>
