<svg xmlns="http://www.w3.org/2000/svg" viewBox="0 0 1128 194"><defs><style>.cls-1{fill:#ff37ab;}.cls-2{fill:#48e9ce;}.cls-3{fill:#fff;}</style></defs><g id="Layer_2" data-name="Layer 2"><g id="Layer_1-2" data-name="Layer 1"><path class="cls-1" d="M438.26,124.7c0,19.8-7.14,36.49-21.22,49.63-12.43,11.61-27.89,18.15-45.93,19.45L368,194V163.75l2.58-.29a38.62,38.62,0,0,0,23.81-11c7.59-7.5,11.43-17.28,11.43-29.08s-4-21.45-11.9-29.08a40.13,40.13,0,0,0-23.4-11.13L368,82.85V53.35l3.08.21c18.16,1.12,33.74,7.87,46.3,20.08C431.23,87.14,438.26,104.32,438.26,124.7Z"/><path class="cls-2" d="M323.75,107.33a42,42,0,0,0-3,16c0,11.8,3.85,21.58,11.43,29.08a38.76,38.76,0,0,0,23.81,11l2.59.29V194l-3.12-.22c-18-1.3-33.48-7.83-45.93-19.43-14.08-13.13-21.21-29.83-21.21-49.65,0-20.38,7-37.56,20.88-51.06,12.56-12.21,28.13-19,46.29-20.08l3.09-.21v29.5l-2.52.32A40.16,40.16,0,0,0,332.66,94.3,38.08,38.08,0,0,0,323.75,107.33Z"/><path class="cls-3" d="M119.58,188.69H86.84V110.26a32.68,32.68,0,0,0-2.17-12.39A25.27,25.27,0,0,0,78.85,89a23.57,23.57,0,0,0-8.33-5.23,28.3,28.3,0,0,0-9.7-1.7A43.78,43.78,0,0,0,46,84.68,37.21,37.21,0,0,0,32.74,93v95.71H0V57.29H32.74L33,67.07a34.85,34.85,0,0,1,7.27-5.46,56.88,56.88,0,0,1,9-4.21,59.42,59.42,0,0,1,9.55-2.61,52,52,0,0,1,9.43-.91,58.38,58.38,0,0,1,19.21,3.18,46.21,46.21,0,0,1,16.37,9.78,47.26,47.26,0,0,1,11.48,17q4.32,10.45,4.32,24.78Z"/><path class="cls-3" d="M275.39,122.76c0,2.13-.11,4.32-.33,6.6s-.5,4.62-.8,7h-105a45.2,45.2,0,0,0,5.11,10.8,36.1,36.1,0,0,0,8.07,8.87,38.42,38.42,0,0,0,10.8,5.91,39.18,39.18,0,0,0,13.3,2.16,53.75,53.75,0,0,0,17.73-3.07,43.38,43.38,0,0,0,14.78-8.3l20.69,20.69Q246.08,183.69,233,187.89a89.51,89.51,0,0,1-27.62,4.21,69.58,69.58,0,0,1-64.8-42.17,69.31,69.31,0,0,1,0-53.88,68.31,68.31,0,0,1,15-21.94,72.41,72.41,0,0,1,22.28-14.78,68.61,68.61,0,0,1,27.28-5.45A70.73,70.73,0,0,1,231.75,59a72.38,72.38,0,0,1,22.51,14.2,66.46,66.46,0,0,1,21.13,49.56ZM241.07,110a39.4,39.4,0,0,0-13.76-20.12,35.76,35.76,0,0,0-22.39-7.61,35,35,0,0,0-22,7.61A39.68,39.68,0,0,0,169.23,110Z"/><path class="cls-3" d="M571.67,188.69H538.93V110.26a32.68,32.68,0,0,0-2.17-12.39A25.27,25.27,0,0,0,530.94,89a23.75,23.75,0,0,0-8.33-5.23,28.3,28.3,0,0,0-9.7-1.7,43.84,43.84,0,0,0-14.85,2.61A37.29,37.29,0,0,0,484.82,93v95.71H452.09V57.29h32.73l.24,9.78a34.85,34.85,0,0,1,7.27-5.46,56.88,56.88,0,0,1,9-4.21,59.14,59.14,0,0,1,9.55-2.61,52,52,0,0,1,9.43-.91,58.43,58.43,0,0,1,19.21,3.18,46.3,46.3,0,0,1,16.37,9.78,47.39,47.39,0,0,1,11.48,17q4.32,10.45,4.32,24.78Z"/><path class="cls-3" d="M666.05,185.74a38.06,38.06,0,0,1-11.59,4.77,56.1,56.1,0,0,1-13.19,1.59q-11.6,0-19.55-2.84A28,28,0,0,1,609,180.51a37.2,37.2,0,0,1-6.93-15,93.24,93.24,0,0,1-2.16-21.37V86.62H582.62V71.84a61.31,61.31,0,0,0,25.81-19.55q9.89-13,13.52-33.65h10.68V57.06h33.2V86.62h-33.2v59.79a22.49,22.49,0,0,0,1.26,8.18,12.8,12.8,0,0,0,3.29,5,11.19,11.19,0,0,0,4.66,2.5,21.74,21.74,0,0,0,5.57.69,39.43,39.43,0,0,0,9.32-1.37,23.17,23.17,0,0,0,9.32-4.55Z"/><path class="cls-3" d="M779.9,70.93,762.4,98.67a60.56,60.56,0,0,0-10.58-9.21,20.52,20.52,0,0,0-11.7-4A19,19,0,0,0,733.18,87a20.06,20.06,0,0,0-7,4.88,27.87,27.87,0,0,0-5.57,9,36.37,36.37,0,0,0-2.28,13.75v74.11H685.55V57.29h32.74V71.38a47.35,47.35,0,0,1,13.07-13,29.31,29.31,0,0,1,16-4.54,34.21,34.21,0,0,1,16.94,4.66A65.68,65.68,0,0,1,779.9,70.93Z"/><path class="cls-3" d="M824.68,34.33h-34.1V.23h34.1Zm-.45,154.36H791V57.06h33.19Z"/><path class="cls-3" d="M972.73,123a74.78,74.78,0,0,1-4.67,26.37A68.5,68.5,0,0,1,955,171.3a63.34,63.34,0,0,1-20.05,15,58.48,58.48,0,0,1-25.52,5.56,53.3,53.3,0,0,1-16.19-2.38,44.45,44.45,0,0,1-14.13-7.62v6.82H846.33V0h33l.22,63.65a45.28,45.28,0,0,1,13.53-7.27,49.77,49.77,0,0,1,16.48-2.73A54.32,54.32,0,0,1,932.94,59a67,67,0,0,1,20.24,14.66A72.46,72.46,0,0,1,967.39,95.6,69.54,69.54,0,0,1,972.73,123Zm-33.19,0a48,48,0,0,0-2.74-16.6,38,38,0,0,0-7.64-12.84,33.1,33.1,0,0,0-11.64-8.18,38,38,0,0,0-14.95-2.85,41.14,41.14,0,0,0-12.09,2.16,38,38,0,0,0-11.42,5.58v63.19q10.74,9.78,24.2,9.78a35.5,35.5,0,0,0,14.49-3A33.19,33.19,0,0,0,929.27,152a39.4,39.4,0,0,0,7.53-12.73A46.39,46.39,0,0,0,939.54,123Z"/><path class="cls-3" d="M1128,122.76a65.6,65.6,0,0,1-.34,6.6c-.23,2.27-.49,4.62-.8,7h-105a45.62,45.62,0,0,0,5.12,10.8,36.1,36.1,0,0,0,8.07,8.87,38.14,38.14,0,0,0,10.8,5.91,39.1,39.1,0,0,0,13.3,2.16,53.8,53.8,0,0,0,17.73-3.07,43.57,43.57,0,0,0,14.78-8.3l20.69,20.69q-13.65,10.23-26.72,14.43A89.47,89.47,0,0,1,1058,192.1a70.77,70.77,0,0,1-49.9-20.23,69.11,69.11,0,0,1-14.89-21.94,69.19,69.19,0,0,1,0-53.88,68.28,68.28,0,0,1,15-21.94,72.65,72.65,0,0,1,22.28-14.78,68.66,68.66,0,0,1,27.29-5.45A70.68,70.68,0,0,1,1084.35,59a72.15,72.15,0,0,1,22.51,14.2A66.42,66.42,0,0,1,1128,122.76ZM1093.68,110a39.52,39.52,0,0,0-13.76-20.12,35.78,35.78,0,0,0-22.39-7.61,35,35,0,0,0-22,7.61A39.7,39.7,0,0,0,1021.83,110Z"/></g></g></svg>