<?xml version="1.0" encoding="UTF-8"?>
<svg width="50px" height="26px" viewBox="0 0 50 26" version="1.1" xmlns="http://www.w3.org/2000/svg" xmlns:xlink="http://www.w3.org/1999/xlink">
    <!-- Generator: Sketch 63.1 (92452) - https://sketch.com -->
    <title>Path Copy 26</title>
    <desc>Created with Sketch.</desc>
    <g id="Page-1" stroke="none" stroke-width="1" fill="none" fill-rule="evenodd">
        <g id="Desktop-HD-Copy-2" transform="translate(-800.000000, -88.000000)" fill="#FF37AB" fill-rule="nonzero" stroke="#FF00AE">
            <path d="M837,101.349804 C837,108.107003 834.561059,113.802844 829.751494,118.287167 C825.505551,122.249342 820.224594,124.481266 814.06234,124.92492 L813,125 L813,114.676502 L813.881298,114.577533 C816.947688,114.312415 819.824781,112.984454 822.014518,110.823534 C824.614005,108.263989 825.918873,104.926342 825.918873,100.889086 C825.918873,96.8518308 824.552519,93.5687878 821.853971,90.9648774 C819.681858,88.8542828 816.871018,87.5221678 813.860803,87.1767508 L813,87.0675435 L813,77 L814.052092,77.0716673 C820.255337,77.4538926 825.577284,79.7574831 829.867635,83.9244223 C834.598634,88.5316033 837,94.4049058 837,101.349804 Z" id="Path-Copy-26" transform="translate(825.000000, 101.000000) scale(-1, 1) rotate(90.000000) translate(-825.000000, -101.000000) "></path>
        </g>
    </g>
</svg>