<svg xmlns="http://www.w3.org/2000/svg" width="118.285" height="166.441" viewBox="0 0 118.285 166.441">
    <g data-name="Group 87">
        <path data-name="Path 37" d="M423.428 109.639c0 15.62-5.633 28.787-16.741 39.154-9.805 9.159-22 14.319-36.234 15.344l-2.453.174v-23.865l2.035-.229a30.467 30.467 0 0 0 18.784-8.678c5.988-5.917 9.017-13.632 9.017-22.942s-3.156-16.922-9.388-22.942a31.657 31.657 0 0 0-18.46-8.781L368 76.623V53.35l2.43.166c14.326.884 26.617 6.209 36.525 15.841 10.927 10.65 16.473 24.204 16.473 40.282z" transform="translate(-305.143 -53.35)" style="fill:#ff37ab"/>
        <path data-name="Path 38" d="M316.27 95.936a33.139 33.139 0 0 0-2.367 12.623c0 9.309 3.037 17.025 9.017 22.942a30.576 30.576 0 0 0 18.784 8.678l2.043.229v23.9l-2.461-.174c-14.2-1.026-26.412-6.177-36.234-15.329-11.108-10.358-16.732-23.533-16.732-39.17 0-16.078 5.522-29.632 16.472-40.282a55.655 55.655 0 0 1 36.518-15.837l2.437-.166v23.273l-1.988.252a31.682 31.682 0 0 0-18.46 8.781 30.045 30.045 0 0 0-7.029 10.28z" transform="translate(-288.32 2.131)" style="fill:#48e9ce"/>
    </g>
</svg>
