<svg xmlns="http://www.w3.org/2000/svg" width="276.481" height="128" viewBox="0 0 276.481 128">
    <defs>
        <linearGradient id="x7vvhyts9a" x1=".5" x2=".5" y2="1" gradientUnits="objectBoundingBox">
            <stop offset="0" stop-color="#48e9ce"/>
            <stop offset="1" stop-color="#ff37ab"/>
        </linearGradient>
    </defs>
    <g data-name="Group 97">
        <path data-name="Path 44" d="M311.742 89.65a28.245 28.245 0 0 1 2.018 10.76c0 7.935-2.589 14.512-7.686 19.556a26.066 26.066 0 0 1-16.012 7.4l-1.742.195v20.376l2.1-.148c12.1-.874 22.514-5.265 30.887-13.066 9.469-8.83 14.263-20.06 14.263-33.388 0-13.705-4.707-25.258-14.041-34.337a47.443 47.443 0 0 0-31.129-13.5l-2.078-.141v19.831l1.695.215a27.007 27.007 0 0 1 15.736 7.485 25.61 25.61 0 0 1 5.989 8.762z" transform="translate(-187.087 -36.247)" style="fill:#48e9ce"/>
        <path data-name="Path 45" d="M311.742 89.65a28.245 28.245 0 0 1 2.018 10.76c0 7.935-2.589 14.512-7.686 19.556a26.066 26.066 0 0 1-16.012 7.4l-1.742.195v20.376l2.1-.148c12.1-.874 22.514-5.265 30.887-13.066 9.469-8.83 14.263-20.06 14.263-33.388 0-13.705-4.707-25.258-14.041-34.337a47.443 47.443 0 0 0-31.129-13.5l-2.078-.141v19.831l1.695.215a27.007 27.007 0 0 1 15.736 7.485 25.61 25.61 0 0 1 5.989 8.762z" transform="translate(-288.32 -36.247)" style="fill:#48e9ce"/>
        <path data-name="Path 43" d="M312.146 89.65a28.244 28.244 0 0 0-2.018 10.76c0 7.935 2.589 14.512 7.686 19.556a26.065 26.065 0 0 0 16.011 7.4l1.742.195v20.376l-2.1-.148c-12.1-.874-22.514-5.265-30.886-13.066-9.468-8.83-14.263-20.06-14.263-33.388 0-13.705 4.707-25.258 14.041-34.337a47.442 47.442 0 0 1 31.128-13.5l2.078-.141v19.831l-1.694.215a27.006 27.006 0 0 0-15.736 7.485 25.61 25.61 0 0 0-5.989 8.762z" transform="translate(-241.071 -36.247)" style="fill:#ff37ab"/>
        <g data-name="Group 84" transform="translate(148.482)">
            <circle data-name="Ellipse 3" cx="47.323" cy="47.323" transform="rotate(-62.03 69.505 41.797)" style="fill:url(#x7vvhyts9a)" r="47.323"/>
            <circle data-name="Ellipse 4" cx="26.919" cy="26.919" transform="rotate(-62.03 76.288 14.628)" r="26.919"/>
        </g>
    </g>
</svg>
