<svg data-name="Group 98" xmlns="http://www.w3.org/2000/svg" width="41.792" height="41.792" viewBox="0 0 41.792 41.792">
    <path data-name="Path 46" d="M20.9 0A20.9 20.9 0 1 1 0 20.9 20.9 20.9 0 0 1 20.9 0z" style="fill:#561dee"/>
    <path data-name="Icon awesome-twitter" d="M20.332 7.968c.014.2.014.4.014.6A13.124 13.124 0 0 1 7.132 21.786 13.125 13.125 0 0 1 0 19.7a9.608 9.608 0 0 0 1.122.057 9.3 9.3 0 0 0 5.766-1.984 4.653 4.653 0 0 1-4.343-3.221 5.857 5.857 0 0 0 .877.072 4.912 4.912 0 0 0 1.222-.158A4.645 4.645 0 0 1 .92 9.909v-.058a4.677 4.677 0 0 0 2.1.59 4.651 4.651 0 0 1-1.438-6.212 13.2 13.2 0 0 0 9.576 4.86 5.243 5.243 0 0 1-.115-1.064 4.649 4.649 0 0 1 8.038-3.178 9.144 9.144 0 0 0 2.948-1.122 4.632 4.632 0 0 1-2.042 2.559 9.311 9.311 0 0 0 2.674-.719 9.984 9.984 0 0 1-2.329 2.4z" transform="translate(9.202 8.123)" style="fill:#fff"/>
</svg>