<?xml version="1.0" encoding="UTF-8" standalone="no"?>
<!-- Created with Inkscape (http://www.inkscape.org/) -->

<svg
   xmlns:dc="http://purl.org/dc/elements/1.1/"
   xmlns:cc="http://creativecommons.org/ns#"
   xmlns:rdf="http://www.w3.org/1999/02/22-rdf-syntax-ns#"
   xmlns:svg="http://www.w3.org/2000/svg"
   xmlns="http://www.w3.org/2000/svg"
   version="1.1"
   width="150"
   height="150"
   id="svg2"
   xml:space="preserve"><metadata
     id="metadata8"><rdf:RDF><cc:Work
         rdf:about=""><dc:format>image/svg+xml</dc:format><dc:type
           rdf:resource="http://purl.org/dc/dcmitype/StillImage" /><dc:title></dc:title></cc:Work></rdf:RDF></metadata><defs
     id="defs6" /><g
     transform="matrix(0.30458603,0,0,-0.30458603,-17.467914,212.15282)"
     id="g10"
     style="fill:#555555;fill-opacity:1"><g
       transform="scale(0.1,0.1)"
       id="g12"
       style="fill:#555555;fill-opacity:1"><path
         d="m 3331.77,6440.21 c 22.36,-283 616.38,-152.06 652.66,71.38 28.96,178.49 -96.26,248.76 -305.93,214.16 -150.62,-24.89 -361.66,-96.4 -346.73,-285.54 m 377.33,438.5 101.97,0 c 217.2,-41.28 357.21,-160.03 316.11,-397.72 -60.76,-351.49 -818.96,-492.05 -917.79,-122.38 -91.66,342.99 251.04,471.69 499.71,520.1"
         id="path14"
         style="fill:#555555;fill-opacity:1;fill-rule:evenodd;stroke:none" /><path
         d="m 2169.25,6419.81 c -5.55,15.88 -27.63,31.18 -30.6,51 -13.61,91.47 431.26,317.32 530.27,367.1 40.58,20.39 90.23,-50.4 91.79,-61.19 13.7,-94.38 -207.43,-163.52 -275.33,-203.95 -114.54,-68.22 -173.47,-142.26 -316.13,-152.96"
         id="path16"
         style="fill:#555555;fill-opacity:1;fill-rule:evenodd;stroke:none" /><path
         d="m 2301.83,6154.66 c -6.72,13.7 -21.82,19 -40.81,20.4 -50.54,117.26 107.58,170.58 234.55,244.75 124.36,72.6 193.22,119.9 265.15,152.97 49.09,22.55 110.76,-21.24 112.16,-61.2 2.61,-73.88 -205.95,-168.55 -265.13,-203.95 -116.94,-69.95 -193.14,-109.92 -305.92,-152.97"
         id="path18"
         style="fill:#555555;fill-opacity:1;fill-rule:evenodd;stroke:none" /><path
         d="m 1904.11,6562.57 c 75.26,-191.67 109.77,-431.03 122.38,-662.84 -131.65,-19.89 -238.89,60.62 -336.52,112.19 -100.7,53.15 -192.49,116.56 -295.74,163.14 -18.69,-185.25 10.13,-418.04 -50.98,-560.87 l -71.39,0 c -59.47,106.69 -27.61,300.03 -20.39,458.89 5.2,114.7 -20.56,248.79 61.2,295.75 203.62,-78.53 369.65,-194.62 560.87,-285.54 -32.72,160.11 -64.79,279.14 -71.42,448.68 21.84,22.39 49.53,38.87 101.99,30.6"
         id="path20"
         style="fill:#555555;fill-opacity:1;fill-rule:evenodd;stroke:none" /><path
         d="m 4688.05,6480.99 c 65.75,-192.61 118.34,-398.34 173.36,-601.65 52.67,37.96 97.89,114.37 163.17,193.74 62.39,75.88 138.49,221.75 244.74,163.17 19.95,-140.26 -118.13,-236.89 -193.75,-326.31 -75.19,-88.93 -135.41,-242.49 -275.34,-254.94 -95.46,186.64 -129.19,435.09 -203.95,642.43 -71.72,-41.01 -157.94,-112.26 -265.14,-193.75 -91.33,-69.41 -249.26,-249.74 -326.32,-122.36 40.5,130.9 180.02,180.29 275.34,254.93 100.47,78.7 194.96,161.79 295.74,234.55 2.51,11.06 20.27,6.9 20.38,20.4 37.15,3.13 66.36,-1.62 91.77,-10.21"
         id="path22"
         style="fill:#555555;fill-opacity:1;fill-rule:evenodd;stroke:none" /><path
         d="m 2413.98,5889.52 c -19.1,25.72 -45.28,30.02 -40.78,81.59 5.58,63.88 422.54,280.77 509.89,336.52 47.14,30.1 100.5,-45.06 101.96,-50.99 23.19,-93.48 -193.78,-177.46 -254.93,-214.16 -117.49,-70.47 -184.48,-127.14 -316.14,-152.96"
         id="path24"
         style="fill:#555555;fill-opacity:1;fill-rule:evenodd;stroke:none" /><path
         d="m 3892.64,6011.91 c 11.72,-28.58 11.72,-53.02 0,-81.59 -221.91,-41.9 -471.64,22.34 -693.42,61.17 -22.16,19.73 -29.75,130.81 50.99,122.4 142.95,-14.96 541.6,-47.43 642.43,-101.98"
         id="path26"
         style="fill:#555555;fill-opacity:1;fill-rule:evenodd;stroke:none" /><path
         d="m 3964.04,4237.52 c -10.31,77.87 -63.06,203.55 -122.39,244.78 -264.89,183.83 -459.67,-387.39 -30.58,-275.36 120.42,-183.23 -28.43,-416.56 -112.18,-550.7 141.48,117.56 299.33,323.05 265.15,581.28 m -1774.4,367.12 c -160.71,120.95 -367.17,-60.6 -265.12,-265.15 84.86,-1.09 94.16,65.13 183.54,40.83 227.9,-62.04 -51.17,-553.99 -122.37,-611.84 291.76,24.19 425.18,669.6 203.95,836.16 m 1672.42,295.72 c -61.99,-55.27 -156.65,-116.61 -275.35,-112.14 -175.87,6.48 -258.85,162.83 -377.32,234.53 -526.05,318.32 -1349.55,219.59 -1774.36,-152.96 -164.27,-144.11 -313.74,-349.15 -265.15,-662.85 20.62,601.55 827.88,891.05 1213.53,520.04 162.57,-156.34 226.73,-420.74 428.3,-499.62 338.22,-132.5 432.87,244.98 622.03,356.92 132.11,78.07 386.55,108.84 530.3,30.57 53.1,-28.98 85.12,-107.35 163.13,-142.81 102.65,-46.55 215.34,-21.6 326.34,10.26 -100.56,138.67 -342.47,222.17 -346.71,438.48 -1.29,65.92 31.56,95.05 30.59,173.38 -165.63,71.2 -189.31,-117.12 -275.33,-193.8 m 336.49,122.39 c -45.84,-255.54 218.66,-490.76 458.9,-458.89 155.01,20.52 223.65,157.25 316.14,265.1 -91.17,-46.51 -173.55,-134.94 -295.72,-152.96 -198.23,-29.18 -397.13,93.71 -387.52,295.76 5.03,105.86 92.27,187.58 152.97,234.53 43.64,33.76 118.6,54.92 101.97,81.56 -154.73,-49.94 -319.15,-111.54 -346.74,-265.1 m 1233.88,-428.36 c 21.76,-110.4 10.83,-179.21 -18.12,-288.51 -29.28,-110.34 -69.17,-218.84 -134.8,-313.09 -780.1,-1120.6 -3713.2,-1140.75 -4507.326,0 -160.153,230.09 -204.239,525.76 -102.961,785.38 44.715,114.62 112.679,218.89 194.039,310.81 167.008,188.61 386.208,326.84 612.548,433.44 816.38,384.5 1988.86,428.75 2885.93,91.77 59.72,0 153.7,-61.19 208,-85.97 69.19,-31.59 137.18,-65.9 203.16,-103.79 125.85,-72.25 245.08,-157.64 347.7,-260.66 100.16,-100.59 183.23,-217.7 240.63,-347.71 30.07,-68.16 54.19,-139.97 69.4,-212.96 0.63,-2.89 1.23,-5.83 1.8,-8.71"
         id="path28"
         style="fill:#555555;fill-opacity:1;fill-rule:evenodd;stroke:none" /><path
         d="m 4473.93,2973.03 c -38.3,87.68 111.9,184.27 224.33,275.3 124.1,100.59 164.71,158.74 265.12,203.96 45.36,20.41 90.22,-50.89 91.8,-61.15 11.89,-77.88 -221.21,-228.8 -265.15,-265.14 -105.86,-87.6 -199,-206.4 -316.1,-152.97"
         id="path30"
         style="fill:#555555;fill-opacity:1;fill-rule:evenodd;stroke:none" /><path
         d="m 1802.13,3034.22 c -113.15,-22 -200.74,62.33 -295.72,91.78 -102.12,-153.32 -222.55,-322.82 -336.52,-489.52 -32.81,-48 -58.59,-143.8 -152.97,-91.72 -1.39,18.91 -6.69,34.06 -20.393,40.74 95.763,223.76 249.993,389.07 367.133,591.48 -74.02,47.9 -315.27,89.57 -183.57,214.16 96.53,1.39 188.57,-60.25 336.53,-122.39 130.06,-54.62 366.45,-81.06 285.51,-234.53"
         id="path32"
         style="fill:#555555;fill-opacity:1;fill-rule:evenodd;stroke:none" /><path
         d="m 5157.15,3156.61 c 79.25,-104.06 -157.1,-236.41 -244.77,-305.92 -111.15,-88.29 -217.9,-222.53 -326.31,-142.81 14.75,134.64 164.82,195.15 254.95,265.15 90.4,70.21 182.55,200.16 316.13,183.58"
         id="path34"
         style="fill:#555555;fill-opacity:1;fill-rule:evenodd;stroke:none" /><path
         d="m 2363,2830.27 c 0.84,74.94 -130.63,105.46 -234.52,112.14 -33.61,-71.76 -62.7,-148.08 -91.8,-224.32 130.73,9.25 325.25,14.19 326.32,112.18 m 30.6,-724.04 -40.78,0 c -142.93,146.05 -227.63,350.24 -367.12,499.66 -52.66,-66.41 -85.7,-392.85 -203.96,-377.32 -105.26,13.9 -32.76,147.64 -10.18,203.95 91.42,228.21 179.63,510.59 285.51,662.85 233.88,-7.96 471.94,-86.7 448.71,-295.67 -16.73,-150.68 -179.01,-173.14 -316.13,-224.37 38.58,-113.43 350.09,-362.74 203.95,-469.1"
         id="path36"
         style="fill:#555555;fill-opacity:1;fill-rule:evenodd;stroke:none" /><path
         d="m 3770.26,2911.84 c 39.52,-205.25 74.8,-414.68 112.19,-622.02 111.69,34.15 317.58,44.17 305.94,173.33 -11.07,122.53 -238.57,81.31 -285.55,152.96 -63.2,96.4 65.43,107.65 101.98,132.6 53.68,36.54 102.35,96.09 61.2,173.32 -85.57,41.09 -208.04,7.03 -295.76,-10.19 m 377.31,-224.38 c 118.53,-60.55 225.44,-164.71 173.38,-316.08 -60.42,-175.62 -363.06,-223.23 -540.47,-224.37 -72.45,233.73 -121.57,569.38 -152.97,836.22 96.01,90.69 348.91,133.05 479.29,81.56 127.77,-50.44 159.33,-301.34 40.77,-377.33"
         id="path38"
         style="fill:#555555;fill-opacity:1;fill-rule:evenodd;stroke:none" /><path
         d="m 3372.57,2922.03 c -27,-68.65 -156.43,-58.1 -203.96,-50.99 -67.8,-183.73 -105.27,-397.78 -163.16,-591.48 69.82,-28.38 221.53,-18.92 163.16,-142.7 -134.43,-47.11 -316.39,19.32 -458.88,30.57 -13.99,42.77 -26.64,74.19 0,112.13 42.05,31.67 78.77,6.52 142.76,10.26 68.34,169.59 104.26,371.61 152.96,560.87 -46.31,28.42 -160.33,-10.87 -193.74,30.57 1.64,11.85 -2.27,18.12 -10.21,20.42 -18.57,144.65 200.56,101.97 367.11,101.97 113.86,0 218.24,2.7 203.96,-81.62"
         id="path40"
         style="fill:#555555;fill-opacity:1;fill-rule:evenodd;stroke:none" /><path
         d="m 5238.73,2901.68 c 255.79,-37.65 -83,-260.71 -152.96,-316.18 -42.29,-33.47 -329.38,-308.32 -356.91,-142.72 -12.17,73.1 177.98,189.81 234.52,234.52 110.07,87 189.91,157.1 275.35,224.38"
         id="path42"
         style="fill:#555555;fill-opacity:1;fill-rule:evenodd;stroke:none" /></g></g></svg>