<svg id="Layer_1" data-name="Layer 1" xmlns="http://www.w3.org/2000/svg" viewBox="0 0 1038.49 421.73"><defs><style>.cls-1,.cls-2,.cls-7{fill:none;}.cls-1,.cls-2{stroke:#662483;}.cls-1,.cls-2,.cls-29,.cls-3,.cls-4,.cls-6,.cls-7{stroke-miterlimit:10;}.cls-1,.cls-4{stroke-width:4px;}.cls-1{stroke-dasharray:3 3;}.cls-2,.cls-3{stroke-width:8px;}.cls-3{fill:#662483;}.cls-3,.cls-4,.cls-6{stroke:#4a2562;}.cls-4,.cls-6,.cls-8{fill:#fff;}.cls-29,.cls-30,.cls-5{fill:#3c3c3b;}.cls-6{stroke-width:3.5px;}.cls-29,.cls-7{stroke:#3c3c3b;}.cls-7{stroke-width:1.5px;}.cls-8{font-size:13.4px;font-family:MontserratAlternates-Medium, Montserrat Alternates;font-weight:500;}.cls-9{letter-spacing:0em;}.cls-10{letter-spacing:-0.01em;}.cls-11{letter-spacing:-0.01em;}.cls-12{letter-spacing:0em;}.cls-13{letter-spacing:-0.03em;}.cls-14{letter-spacing:0em;}.cls-15{letter-spacing:-0.01em;}.cls-16{letter-spacing:0.08em;}.cls-17{letter-spacing:-0.01em;}.cls-18{letter-spacing:-0.02em;}.cls-19{letter-spacing:0.02em;}.cls-20{letter-spacing:-0.02em;}.cls-21{letter-spacing:-0.02em;}.cls-22{letter-spacing:-0.02em;}.cls-23{letter-spacing:-0.01em;}.cls-24{letter-spacing:-0.02em;}.cls-25{letter-spacing:-0.01em;}.cls-26{letter-spacing:-0.01em;}.cls-27{letter-spacing:0em;}.cls-28{letter-spacing:-0.01em;}.cls-30{fill-rule:evenodd;}.cls-31{fill:#4a2562;}</style></defs><title>Pathway</title><polyline class="cls-1" points="655.3 130.1 656.59 331.11 926.59 331.11 674.6 140.62"/><line class="cls-2" x1="64.1" y1="118.05" x2="936.76" y2="118.05"/><rect class="cls-3" x="4" y="47.37" width="254.24" height="134.99" rx="37.66"/><rect class="cls-3" x="528.37" y="43.66" width="276.23" height="126.51" rx="37.66"/><rect class="cls-3" x="840.42" y="55.02" width="181.14" height="124.16" rx="28.35"/><rect class="cls-3" x="308.65" y="73.89" width="176.73" height="84.11" rx="22.68"/><circle class="cls-4" cx="127.62" cy="29.52" r="27.52"/><circle class="cls-4" cx="662.92" cy="29.52" r="27.52"/><circle class="cls-4" cx="932.67" cy="40.65" r="27.52"/><path class="cls-5" d="M131.79,54.1a1.13,1.13,0,0,1-.35-.09.82.82,0,0,1-.43-1.13,7.22,7.22,0,0,0,.34-1c0-.09,0-.22,0-.3a5.36,5.36,0,0,0-.17-.87c-.48-1.52-1-3-1.61-4.51v0c0-.13-.08-.26-.91-.17-.3,0-.56,0-.82.08a18.55,18.55,0,0,1-3.16.09c-2.73-.26-3.08-2-3-3.77v0a1.66,1.66,0,0,0-.21-1c-.74-.74.1-1.47.31-2a1.26,1.26,0,0,1-.17-.48v0c0-.09-.84-.18-.88-.26a3.26,3.26,0,0,1,0-1.13c.09-.43,0-.52,0-.52a1.58,1.58,0,0,0-.47-.26,5.81,5.81,0,0,1-1.13-.43,2.12,2.12,0,0,1-1.17-1.3,2.33,2.33,0,0,1,.35-1.78c.39-.69.82-1.39,1.21-2.08s1-1.64,1.47-2.47a2.5,2.5,0,0,0,.09-1v-.39a4.22,4.22,0,0,0-.09-.69,4,4,0,0,1-.08-1.6v-.05a29.18,29.18,0,0,1,1.43-4,10.79,10.79,0,0,1,7.36-6.07,20.43,20.43,0,0,1,11-.35c4.9,1.3,10.23,5.64,10.23,11.75a14.51,14.51,0,0,1-1.3,6c-2.21,4.64-2.65,6.76-1.43,11.88a.25.25,0,0,1,0,.17,5.11,5.11,0,0,0,.65,1.26l1.86,2.16a.86.86,0,1,1-1.3,1.13l-1.9-2.21c-.05,0-.05-.09-.09-.09a5.45,5.45,0,0,1-.91-2.08c-1.39-5.5-.87-8,1.47-12.95a12.62,12.62,0,0,0,1.13-5.24c0-5.2-4.64-8.93-9-10.19a18.5,18.5,0,0,0-10.1.35,8.86,8.86,0,0,0-6.24,5.11,24.21,24.21,0,0,0-1.3,3.73,3.61,3.61,0,0,0,.09.87,7.41,7.41,0,0,1,.13,1v.35a3.86,3.86,0,0,1-.3,1.95c-.48.82-1,1.69-1.48,2.51s-.82,1.39-1.21,2a1.05,1.05,0,0,0-.17.43h0s0,.09.34.26a3.83,3.83,0,0,0,.78.3h0a2.13,2.13,0,0,1,1.6,2.78c0,.21.79.3.84.52a.69.69,0,0,1,.39.3.8.8,0,0,1,0,1c-.17.26-.88.52-.92.56h0l.21.22a2.78,2.78,0,0,1,.48,2.08c0,1.64.26,1.86,1.48,2a14.78,14.78,0,0,0,2.81-.09c.26,0,.52,0,.78-.08a2.25,2.25,0,0,1,2.73,1.34c.57,1.47,1.13,3,1.61,4.55a4.61,4.61,0,0,1,.21,1.13c.05.13.05.3.09.43V52a5.68,5.68,0,0,1-.52,1.52A.67.67,0,0,1,131.79,54.1Z" transform="translate(-8.63 -4.47)"/><path class="cls-5" d="M138.06,30.9c0,.08,0,.15.07.18l-.82.93a3.34,3.34,0,0,0,.61.78l1-.6a1.47,1.47,0,0,0,.36.17l0,1.18a4.21,4.21,0,0,0,1,.11l.32-1.14a1.72,1.72,0,0,0,.18,0c.07,0,.14,0,.17-.07l.89.82a3.2,3.2,0,0,0,.79-.61l-.61-1a1.51,1.51,0,0,0,.18-.36l1.18,0a4.22,4.22,0,0,0,.1-1L142.33,30c0-.07,0-.14,0-.18s0-.14-.07-.18l.82-.89a3.34,3.34,0,0,0-.61-.78l-1,.6a1.41,1.41,0,0,0-.35-.17l0-1.18a4.21,4.21,0,0,0-1-.11l-.29,1.07a1.08,1.08,0,0,0-.17,0c-.07,0-.18,0-.22.07l-.85-.82a3.66,3.66,0,0,0-.79.6l.61,1a2,2,0,0,0-.18.36H137a4.21,4.21,0,0,0-.11,1l1.14.36A1.08,1.08,0,0,0,138.06,30.9ZM139.84,29a1.29,1.29,0,1,1-.89,1.6A1.38,1.38,0,0,1,139.84,29Z" transform="translate(-8.63 -4.47)"/><path class="cls-5" d="M134.07,35.43a4.52,4.52,0,0,0,.86-1l1.24.25a5.07,5.07,0,0,0,.46-1.46l-1.13-.54V32c0-.25-.08-.43-.11-.61l1-.75a4.39,4.39,0,0,0-.75-1.35l-1.14.36a4.52,4.52,0,0,0-1-.86l.25-1.24a5.42,5.42,0,0,0-1.46-.47l-.61,1.14H131l-.61.11-.75-1a4.19,4.19,0,0,0-1.35.75l.43,1.18a4.47,4.47,0,0,0-.86,1L126.63,30a5.65,5.65,0,0,0-.47,1.46l1.14.54v.67c0,.25.08.43.11.61l-1,.75a4.39,4.39,0,0,0,.75,1.35l1.18-.43a4.47,4.47,0,0,0,1,.86L129.08,37a3.68,3.68,0,0,0,1.46.5l.54-1.14h.68l.6-.11.75,1a4.19,4.19,0,0,0,1.35-.75Zm-2.49-.54a2.58,2.58,0,0,1-2.71-2.28,2.5,2.5,0,0,1,5-.42A2.55,2.55,0,0,1,131.58,34.89Z" transform="translate(-8.63 -4.47)"/><path class="cls-5" d="M143.54,40.38l1.82-.47a4.84,4.84,0,0,0-.18-1.56l-1.89,0a1.45,1.45,0,0,0-.32-.53l1-1.64a5.23,5.23,0,0,0-1.22-1l-1.38,1.28-.33-.11a1.36,1.36,0,0,0-.35-.07l-.46-1.82a5.19,5.19,0,0,0-1.57.18v2a1.75,1.75,0,0,0-.54.32l-1.63-1a4.85,4.85,0,0,0-.93,1.17l1.28,1.39c0,.11-.07.18-.1.32a1.39,1.39,0,0,0-.08.36l-1.81.42a4.63,4.63,0,0,0,.18,1.57l1.88,0a1.6,1.6,0,0,0,.32.53l-1,1.64a5.39,5.39,0,0,0,1.21,1l1.39-1.28.32.11a1.53,1.53,0,0,0,.36.07l.46,1.81a4.87,4.87,0,0,0,1.57-.17l0-1.89a1.64,1.64,0,0,0,.54-.32l1.64,1a5.69,5.69,0,0,0,1-1.21l-1.35-1.39c0-.11.07-.18.1-.32A1.61,1.61,0,0,0,143.54,40.38Zm-1.49-.07a2,2,0,0,1-2.53,1.38,2.07,2.07,0,0,1-1.39-2.52,2,2,0,0,1,2.53-1.39A2.07,2.07,0,0,1,142.05,40.31Z" transform="translate(-8.63 -4.47)"/><circle class="cls-6" cx="393.96" cy="61.97" r="23.61"/><path class="cls-5" d="M413.92,54.44H391.25a.67.67,0,0,0-.66.67V77.77a.67.67,0,0,0,.66.67h22.67a.67.67,0,0,0,.66-.67V55.11A.67.67,0,0,0,413.92,54.44Zm-.67,22.66H391.92v-20h8.66a.67.67,0,0,0,.48-.2l2.46-1.14h9.73ZM393.19,55.88a.59.59,0,0,1-.59.59.59.59,0,1,1,0-1.18A.59.59,0,0,1,393.19,55.88Zm2.1,0a.6.6,0,1,1-.59-.59A.59.59,0,0,1,395.29,55.88Zm2.17,0a.59.59,0,1,1-.59-.59A.58.58,0,0,1,397.46,55.88Z" transform="translate(-8.63 -4.47)"/><path class="cls-5" d="M397.25,64.44v9.33a.6.6,0,0,0,.08.29.24.24,0,0,0,.07.12l.11.11a.42.42,0,0,0,.16.09.21.21,0,0,0,.12,0h9.46a.66.66,0,0,0,.67-.66V64.44a.67.67,0,0,0-.67-.67h-9.33A.67.67,0,0,0,397.25,64.44Zm1.34.67h8v4.77L405.1,68a.66.66,0,0,0-.93-.11.57.57,0,0,0-.11.11l-2.28,2.84-.66-.85a.68.68,0,0,0-.94-.1.94.94,0,0,0-.1.1l-1.49,1.86Z" transform="translate(-8.63 -4.47)"/><circle class="cls-5" cx="391.96" cy="62.63" r="1.33"/><path class="cls-5" d="M395.73,68a.66.66,0,0,0-.94,0l-1.34,1.33a.66.66,0,0,0,0,.94h0l1.34,1.34a.66.66,0,0,0,.46.19.71.71,0,0,0,.48-.19.66.66,0,0,0,0-.94h0l-.86-.86.86-.86a.66.66,0,0,0,0-.94Z" transform="translate(-8.63 -4.47)"/><path class="cls-5" d="M409.45,71.58a.67.67,0,0,0,.47.19.7.7,0,0,0,.47-.19l1.33-1.34a.66.66,0,0,0,0-.94h0L410.39,68a.66.66,0,1,0-.94.94l.86.86-.86.86a.66.66,0,0,0,0,.94Z" transform="translate(-8.63 -4.47)"/><path class="cls-7" d="M945.92,28.39c-5.54,0-10,3.83-10,8.48a8,8,0,0,0,3.31,6.32,4.58,4.58,0,0,1-3,2.58.38.38,0,0,0,0,.73,9,9,0,0,0,7.66-1.29,15.06,15.06,0,0,0,2.12.2c5.53,0,10.09-3.83,10.09-8.54S951.45,28.39,945.92,28.39Zm.18,2.19a2.59,2.59,0,1,1-2.58,2.59A2.59,2.59,0,0,1,946.1,30.58Zm1.29,4.88c2.09,0,3.72,2.38,3.72,4.29v1.71a.42.42,0,0,1-.44.4h-9.13a.42.42,0,0,1-.44-.4V39.75c0-1.91,1.78-4.29,3.87-4.29" transform="translate(-8.63 -4.47)"/><path class="cls-7" d="M940.83,52.31l-1.07,1-8.8-8.8.92-.89a2.59,2.59,0,0,0-.31-3.31L927,35.77a2.47,2.47,0,0,0-3.23-.28c-1.7,3.16-2,7.65,1.07,10.75l12.48,12.47c3.31,3.31,9.86,4,11.59,1.53" transform="translate(-8.63 -4.47)"/><path class="cls-7" d="M948.76,60.47a2.51,2.51,0,0,0-.26-3.26L944,52.65a2.51,2.51,0,0,0-3.26-.25" transform="translate(-8.63 -4.47)"/><text class="cls-8" transform="translate(43.42 77.16)">I<tspan class="cls-9" x="6.11" y="0">n</tspan><tspan x="15.28" y="0">dividual is in t</tspan><tspan class="cls-9" x="110.46" y="0">h</tspan><tspan x="119.62" y="0">eir own </tspan><tspan x="-17.36" y="17">t</tspan><tspan class="cls-9" x="-12.07" y="17">h</tspan><tspan x="-2.9" y="17">oughts, but e</tspan><tspan class="cls-9" x="87.01" y="17">n</tspan><tspan x="96.18" y="17">gaged with a </tspan><tspan x="-4.52" y="34">social </tspan><tspan class="cls-9" x="39.14" y="34">m</tspan><tspan x="53.34" y="34">edia </tspan><tspan class="cls-10" x="87.16" y="34">c</tspan><tspan class="cls-9" x="94.72" y="34">h</tspan><tspan x="103.89" y="34">an</tspan><tspan class="cls-9" x="122.15" y="34">n</tspan><tspan x="131.32" y="34">el as a </tspan><tspan class="cls-11" x="-20.36" y="51">“</tspan><tspan x="-14.95" y="51">downti</tspan><tspan class="cls-9" x="34.06" y="51">m</tspan><tspan class="cls-12" x="48.26" y="51">e</tspan><tspan x="56.44" y="51">” a</tspan><tspan class="cls-10" x="74.75" y="51">c</tspan><tspan x="82.31" y="51">tivity. </tspan><tspan class="cls-13" x="123.58" y="51">F</tspan><tspan x="131.3" y="51">ea</tspan><tspan class="cls-14" x="148.64" y="51">r</tspan><tspan x="154.1" y="51">s a</tspan><tspan class="cls-9" x="173.55" y="51">n</tspan><tspan x="182.72" y="51">d </tspan><tspan x="-21.41" y="68">ba</tspan><tspan class="cls-10" x="-3.14" y="68">rr</tspan><tspan x="7.67" y="68">ie</tspan><tspan class="cls-14" x="19.6" y="68">r</tspan><tspan x="25.06" y="68">s a</tspan><tspan class="cls-11" x="44.52" y="68">r</tspan><tspan x="49.85" y="68">e </tspan><tspan class="cls-9" x="61.66" y="68">h</tspan><tspan x="70.82" y="68">o</tspan><tspan class="cls-15" x="79.33" y="68">l</tspan><tspan x="83.5" y="68">di</tspan><tspan class="cls-9" x="96.38" y="68">n</tspan><tspan x="105.54" y="68">g t</tspan><tspan class="cls-9" x="123.69" y="68">h</tspan><tspan x="132.85" y="68">em ba</tspan><tspan class="cls-10" x="177.1" y="68">c</tspan><tspan x="184.66" y="68">k </tspan><tspan class="cls-16" x="-7.32" y="85">f</tspan><tspan class="cls-11" x="-1.71" y="85">r</tspan><tspan x="3.62" y="85">om a</tspan><tspan class="cls-10" x="39.04" y="85">c</tspan><tspan x="46.6" y="85">ti</tspan><tspan class="cls-17" x="55.63" y="85">v</tspan><tspan x="62.92" y="85">ely see</tspan><tspan class="cls-10" x="111.22" y="85">k</tspan><tspan x="119.38" y="85">i</tspan><tspan class="cls-9" x="123.12" y="85">n</tspan><tspan x="132.28" y="85">g </tspan><tspan class="cls-9" x="145.13" y="85">h</tspan><tspan x="154.3" y="85">el</tspan><tspan class="cls-11" x="166.8" y="85">p</tspan><tspan x="175.78" y="85">.</tspan></text><text class="cls-8" x="-8.63" y="-4.47"><tspan x="334.19" y="104.94">An in</tspan><tspan class="cls-18" x="370.51" y="104.94">t</tspan><tspan x="375.56" y="104.94">e</tspan><tspan class="cls-19" x="383.76" y="104.94">r</tspan><tspan class="cls-20" x="389.46" y="104.94">v</tspan><tspan x="396.75" y="104.94">ention in </tspan><tspan x="330.79" y="121.94">t</tspan><tspan class="cls-9" x="336.08" y="121.94">h</tspan><tspan x="345.25" y="121.94">at </tspan><tspan class="cls-10" x="363.28" y="121.94">c</tspan><tspan class="cls-9" x="370.84" y="121.94">h</tspan><tspan x="380.01" y="121.94">an</tspan><tspan class="cls-9" x="398.27" y="121.94">n</tspan><tspan x="407.44" y="121.94">el </tspan><tspan class="cls-21" x="423.55" y="121.94">t</tspan><tspan x="428.6" y="121.94">a</tspan><tspan class="cls-22" x="437.74" y="121.94">k</tspan><tspan x="445.7" y="121.94">es </tspan><tspan x="325.69" y="138.94">t</tspan><tspan class="cls-9" x="330.98" y="138.94">h</tspan><tspan x="340.15" y="138.94">em </tspan><tspan class="cls-18" x="366.12" y="138.94">t</tspan><tspan x="371.17" y="138.94">o a s</tspan><tspan class="cls-9" x="402.74" y="138.94">m</tspan><tspan x="416.95" y="138.94">all app</tspan></text><text class="cls-8" transform="translate(552.21 79.19)">T<tspan class="cls-9" x="8.01" y="0">h</tspan><tspan x="17.18" y="0">at app </tspan><tspan class="cls-18" x="66.24" y="0">t</tspan><tspan x="71.29" y="0">a</tspan><tspan class="cls-10" x="80.43" y="0">c</tspan><tspan x="87.98" y="0">k</tspan><tspan class="cls-15" x="96.24" y="0">l</tspan><tspan x="100.41" y="0">es t</tspan><tspan class="cls-9" x="124.22" y="0">h</tspan><tspan x="133.39" y="0">ose </tspan><tspan class="cls-23" x="160.41" y="0">f</tspan><tspan x="164.85" y="0">ea</tspan><tspan class="cls-14" x="182.19" y="0">r</tspan><tspan x="187.64" y="0">s by a </tspan><tspan class="cls-23" x="1.31" y="17">c</tspan><tspan x="8.85" y="17">ombi</tspan><tspan class="cls-9" x="44.4" y="17">n</tspan><tspan x="53.57" y="17">ation of s</tspan><tspan class="cls-9" x="116.35" y="17">h</tspan><tspan x="125.51" y="17">o</tspan><tspan class="cls-10" x="134.02" y="17">r</tspan><tspan x="139.42" y="17">t s</tspan><tspan class="cls-24" x="155.03" y="17">t</tspan><tspan x="160.08" y="17">o</tspan><tspan class="cls-10" x="168.59" y="17">r</tspan><tspan x="173.99" y="17">ies with </tspan><tspan x="-7.64" y="34">illust</tspan><tspan class="cls-25" x="25.78" y="34">r</tspan><tspan x="31.11" y="34">ations de</tspan><tspan class="cls-9" x="94.57" y="34">m</tspan><tspan x="108.78" y="34">onst</tspan><tspan class="cls-26" x="138.42" y="34">r</tspan><tspan x="143.75" y="34">ati</tspan><tspan class="cls-9" x="161.92" y="34">n</tspan><tspan x="171.09" y="34">g positi</tspan><tspan class="cls-20" x="221.07" y="34">v</tspan><tspan x="228.36" y="34">e </tspan><tspan x="3.28" y="51">ou</tspan><tspan class="cls-18" x="20.86" y="51">t</tspan><tspan class="cls-23" x="25.91" y="51">c</tspan><tspan x="33.45" y="51">o</tspan><tspan class="cls-9" x="41.96" y="51">m</tspan><tspan x="56.17" y="51">es a</tspan><tspan class="cls-9" x="83.82" y="51">n</tspan><tspan x="92.99" y="51">d s</tspan><tspan class="cls-27" x="112.45" y="51">h</tspan><tspan x="121.61" y="51">o</tspan><tspan class="cls-10" x="130.12" y="51">r</tspan><tspan x="135.52" y="51">t in</tspan><tspan class="cls-23" x="157.29" y="51">f</tspan><tspan x="161.72" y="51">o</tspan><tspan class="cls-10" x="170.23" y="51">r</tspan><tspan class="cls-9" x="175.63" y="51">m</tspan><tspan x="189.83" y="51">ation </tspan><tspan x="27.22" y="68">passages in p</tspan><tspan class="cls-15" x="121.43" y="68">l</tspan><tspan x="125.6" y="68">ain e</tspan><tspan class="cls-9" x="159.41" y="68">n</tspan><tspan x="168.58" y="68">glish</tspan></text><rect class="cls-3" x="528.37" y="277.78" width="245.76" height="99.07" rx="27.37"/><circle class="cls-4" cx="656.06" cy="263.64" r="27.52"/><text class="cls-8" transform="translate(547.44 316.95)">T<tspan class="cls-9" x="8.01" y="0">h</tspan><tspan x="17.18" y="0">e i</tspan><tspan class="cls-9" x="32.72" y="0">n</tspan><tspan x="41.89" y="0">dividual </tspan><tspan class="cls-9" x="101.25" y="0">h</tspan><tspan x="110.42" y="0">as </tspan><tspan class="cls-26" x="129.88" y="0">r</tspan><tspan x="135.21" y="0">ead e</tspan><tspan class="cls-9" x="173.49" y="0">n</tspan><tspan x="182.66" y="0">ough </tspan><tspan class="cls-23" x="5.92" y="17">f</tspan><tspan x="10.36" y="17">or </tspan><tspan class="cls-9" x="27.97" y="17">n</tspan><tspan x="37.13" y="17">o</tspan><tspan class="cls-26" x="45.64" y="17">w</tspan><tspan x="58.68" y="17">, a</tspan><tspan class="cls-9" x="74.46" y="17">n</tspan><tspan x="83.63" y="17">d </tspan><tspan class="cls-10" x="96.37" y="17">c</tspan><tspan class="cls-15" x="103.93" y="17">l</tspan><tspan x="108.1" y="17">oses t</tspan><tspan class="cls-9" x="147.13" y="17">h</tspan><tspan x="156.3" y="17">e app </tspan><tspan class="cls-18" x="199.13" y="17">t</tspan><tspan x="204.18" y="17">o </tspan><tspan x="26.26" y="34">get on with ot</tspan><tspan class="cls-9" x="122.6" y="34">h</tspan><tspan x="131.77" y="34">er thi</tspan><tspan class="cls-9" x="167.23" y="34">n</tspan><tspan x="176.39" y="34">gs</tspan></text><text class="cls-8" x="-8.63" y="-4.47"><tspan x="862.4" y="90.05">T</tspan><tspan class="cls-9" x="870.42" y="90.05">h</tspan><tspan x="879.58" y="90.05">e i</tspan><tspan class="cls-9" x="895.13" y="90.05">n</tspan><tspan x="904.29" y="90.05">dividual </tspan><tspan class="cls-15" x="963.65" y="90.05">l</tspan><tspan x="967.82" y="90.05">ea</tspan><tspan class="cls-20" x="985.16" y="90.05">v</tspan><tspan x="992.45" y="90.05">es </tspan><tspan x="870.95" y="107.05">t</tspan><tspan class="cls-9" x="876.24" y="107.05">h</tspan><tspan x="885.41" y="107.05">at app by o</tspan><tspan class="cls-9" x="964.79" y="107.05">n</tspan><tspan x="973.96" y="107.05">e of </tspan><tspan x="864.68" y="124.05">t</tspan><tspan class="cls-9" x="869.97" y="124.05">h</tspan><tspan x="879.14" y="124.05">e </tspan><tspan class="cls-25" x="890.94" y="124.05">r</tspan><tspan x="896.28" y="124.05">ou</tspan><tspan class="cls-24" x="913.86" y="124.05">t</tspan><tspan x="918.91" y="124.05">es it of</tspan><tspan class="cls-23" x="963.12" y="124.05">f</tspan><tspan x="967.55" y="124.05">e</tspan><tspan class="cls-14" x="975.75" y="124.05">r</tspan><tspan x="981.21" y="124.05">s </tspan><tspan class="cls-18" x="991.53" y="124.05">t</tspan><tspan x="996.58" y="124.05">o </tspan><tspan class="cls-25" x="866.81" y="141.05">r</tspan><tspan x="872.14" y="141.05">eal ti</tspan><tspan class="cls-9" x="906.42" y="141.05">m</tspan><tspan x="920.62" y="141.05">e suppo</tspan><tspan class="cls-28" x="975" y="141.05">r</tspan><tspan x="980.4" y="141.05">t (a </tspan><tspan class="cls-9" x="865.62" y="158.05">h</tspan><tspan x="874.79" y="158.05">elpli</tspan><tspan class="cls-9" x="904.47" y="158.05">n</tspan><tspan x="913.64" y="158.05">e or </tspan><tspan class="cls-10" x="943.05" y="158.05">c</tspan><tspan class="cls-9" x="950.61" y="158.05">h</tspan><tspan x="959.77" y="158.05">atli</tspan><tspan class="cls-9" x="982.25" y="158.05">n</tspan><tspan x="991.41" y="158.05">e)</tspan></text><path class="cls-5" d="M678.59,15.64h-13.8a3,3,0,0,0-3,3v29.1a3,3,0,0,0,3,3h13.8a3,3,0,0,0,3-3V18.62A3,3,0,0,0,678.59,15.64Zm-13.8,1.16h13.8a1.81,1.81,0,0,1,1.82,1.82v1.64H662.93V18.62A1.82,1.82,0,0,1,664.79,16.8Zm15.62,4.58V44.57H662.93V21.38Zm-1.82,28.16h-13.8A1.8,1.8,0,0,1,663,47.72v-2h17.47v2A1.88,1.88,0,0,1,678.59,49.54Z" transform="translate(-8.63 -4.47)"/><circle class="cls-5" cx="663.03" cy="43.07" r="1.19"/><circle class="cls-5" cx="662.99" cy="43.07" r="1.19"/><path class="cls-5" d="M669.48,18.16a.46.46,0,0,0,0,.91h4.24a.46.46,0,0,0,.46-.45.45.45,0,0,0-.46-.46Z" transform="translate(-8.63 -4.47)"/><path class="cls-5" d="M666,31.44a1.6,1.6,0,0,0,.94,1.12,5,5,0,0,0,1.51.17,6.15,6.15,0,0,0,1.5-.17,1.7,1.7,0,0,0,.95-1.12,5.1,5.1,0,0,0,.14-1.27,4.55,4.55,0,0,0-.14-1.22,1.57,1.57,0,0,0-.95-1.12,4.7,4.7,0,0,0-1.5-.18,6.28,6.28,0,0,0-1.51.18A1.63,1.63,0,0,0,666,29a4.55,4.55,0,0,0-.14,1.26A11.85,11.85,0,0,0,666,31.44Z" transform="translate(-8.63 -4.47)"/><path class="cls-5" d="M672.32,31.44a1.6,1.6,0,0,0,.95,1.12,5,5,0,0,0,1.5.17,6.22,6.22,0,0,0,1.51-.17,1.64,1.64,0,0,0,.94-1.12,4.67,4.67,0,0,0,.14-1.27,4.18,4.18,0,0,0-.14-1.22,1.54,1.54,0,0,0-.94-1.12,4.75,4.75,0,0,0-1.51-.18,6.21,6.21,0,0,0-1.5.18,1.62,1.62,0,0,0-.95,1.12,5.61,5.61,0,0,0,0,2.49Z" transform="translate(-8.63 -4.47)"/><path class="cls-29" d="M668.47,34a4.23,4.23,0,0,1,1.33.18,1.22,1.22,0,0,1,.66.84v0a5.31,5.31,0,0,1,.11,1.12,5.24,5.24,0,0,1-.11,1.12v0a1.13,1.13,0,0,1-.66.8,4.61,4.61,0,0,1-1.37.18,4.55,4.55,0,0,1-1.36-.18,1.23,1.23,0,0,1-.67-.8h0a5.5,5.5,0,0,1-.14-1.16,5.31,5.31,0,0,1,.11-1.12v0a1.12,1.12,0,0,1,.66-.81,4.48,4.48,0,0,1,1.44-.21m0-.42a6.28,6.28,0,0,0-1.51.18,1.63,1.63,0,0,0-.94,1.12,4.55,4.55,0,0,0-.14,1.26,4.64,4.64,0,0,0,.14,1.26,1.6,1.6,0,0,0,.94,1.12,5,5,0,0,0,1.51.17,6.15,6.15,0,0,0,1.5-.17,1.7,1.7,0,0,0,.95-1.12,5.07,5.07,0,0,0,.14-1.26,4.57,4.57,0,0,0-.14-1.23,1.58,1.58,0,0,0-.95-1.12,5.26,5.26,0,0,0-1.5-.21Z" transform="translate(-8.63 -4.47)"/><path class="cls-5" d="M672.32,37.39a1.6,1.6,0,0,0,.95,1.12,5,5,0,0,0,1.5.17,6.22,6.22,0,0,0,1.51-.17,1.64,1.64,0,0,0,.94-1.12,4.64,4.64,0,0,0,.14-1.26,4.2,4.2,0,0,0-.14-1.23,1.56,1.56,0,0,0-.94-1.12,5,5,0,0,0-1.51-.17,6.15,6.15,0,0,0-1.5.17,1.64,1.64,0,0,0-.95,1.12,4.64,4.64,0,0,0-.14,1.26A4.55,4.55,0,0,0,672.32,37.39Z" transform="translate(-8.63 -4.47)"/><path class="cls-30" d="M670.83,256.76H653v22.92h17.81v-8.74c0-1,2-1,2,0v9.48a.92.92,0,0,1-1,.83H652a.93.93,0,0,1-1-.83V255.93c0-.36.48-.73,1-.73H671.9c.48,0,1,.37,1,.73v9.58c0,1-2,1-2,0Z" transform="translate(-8.63 -4.47)"/><path class="cls-30" d="M679.38,269H662.52c-1.31,0-1.31-1.57,0-1.57h16.86L674,263.3c-.83-.74.59-1.75,1.42-1.11l7,5.43c.47.37.47.83,0,1.11l-7,5.43c-.83.74-2.25-.37-1.42-1.1Z" transform="translate(-8.63 -4.47)"/><rect class="cls-3" x="818.69" y="261.15" width="215.8" height="129.47" rx="37.66"/><circle class="cls-4" cx="927.02" cy="247.01" r="27.52"/><text class="cls-8" transform="translate(839.3 300.32)">An i<tspan class="cls-9" x="27.19" y="0">n</tspan><tspan x="36.36" y="0">cident o</tspan><tspan class="cls-23" x="91.62" y="0">c</tspan><tspan x="99.16" y="0">cu</tspan><tspan class="cls-14" x="115.88" y="0">r</tspan><tspan x="121.34" y="0">s whi</tspan><tspan class="cls-10" x="157.72" y="0">c</tspan><tspan x="165.28" y="0">h </tspan><tspan class="cls-25" x="1.38" y="17">r</tspan><tspan x="6.71" y="17">emi</tspan><tspan class="cls-9" x="32.82" y="17">n</tspan><tspan x="41.98" y="17">ds t</tspan><tspan class="cls-9" x="66.73" y="17">h</tspan><tspan x="75.9" y="17">e i</tspan><tspan class="cls-9" x="91.44" y="17">n</tspan><tspan x="100.61" y="17">dividual of </tspan><tspan x="15.28" y="34">t</tspan><tspan class="cls-9" x="20.58" y="34">h</tspan><tspan x="29.74" y="34">e p</tspan><tspan class="cls-25" x="50.69" y="34">r</tspan><tspan x="56.02" y="34">essu</tspan><tspan class="cls-26" x="86.72" y="34">r</tspan><tspan x="92.05" y="34">es of t</tspan><tspan class="cls-9" x="132.52" y="34">h</tspan><tspan x="141.69" y="34">eir </tspan><tspan x="-3.61" y="51">situation so t</tspan><tspan class="cls-9" x="84.74" y="51">h</tspan><tspan x="93.9" y="51">ey decide </tspan><tspan class="cls-18" x="164.45" y="51">t</tspan><tspan x="169.5" y="51">o </tspan><tspan class="cls-15" x="12.82" y="68">l</tspan><tspan x="16.99" y="68">ook at t</tspan><tspan class="cls-9" x="69.2" y="68">h</tspan><tspan x="78.36" y="68">e app again</tspan></text><path class="cls-5" d="M941.34,248.8a2.15,2.15,0,0,0-.51-1.39l-.4-.46a1.82,1.82,0,0,1-.45-1.2V243.6a4.74,4.74,0,0,0-4.07-4.33v-.92a.87.87,0,1,0-1.73,0v.92a4.73,4.73,0,0,0-4.07,4.33v2.24a1.85,1.85,0,0,1-.54,1.3l-.19.19A2.14,2.14,0,0,0,931,251h8.25a2.14,2.14,0,0,0,2.14-2.14Zm-1.73,0a.41.41,0,0,1-.41.42h-8.26a.45.45,0,0,1-.42-.22.41.41,0,0,1,.07-.49l.19-.19a3.52,3.52,0,0,0,1-2.53v-2.13a3,3,0,0,1,3.08-2.77h.27a3,3,0,0,1,3.07,2.77v2a3.58,3.58,0,0,0,.86,2.33l.4.47a.43.43,0,0,1,.1.27Z" transform="translate(-8.63 -4.47)"/><path class="cls-5" d="M935.62,254c.21,0,.38-.36.38-.8s-.17-.8-.38-.8h-1.14c-.21,0-.39.36-.39.8s.18.8.39.8Z" transform="translate(-8.63 -4.47)"/><path class="cls-5" d="M931.24,272.4a.91.91,0,0,1-.35-.09.82.82,0,0,1-.43-1.12,7.34,7.34,0,0,0,.34-1c0-.08,0-.21,0-.3a5.46,5.46,0,0,0-.17-.86c-.48-1.52-1-3-1.61-4.51v0c0-.13-.08-.26-.91-.18-.3.05-.56.05-.82.09a19.64,19.64,0,0,1-3.16.09c-2.73-.26-3.08-2-3-3.77v-.05a1.64,1.64,0,0,0-.21-1c-.74-.74.09-1.48.31-2a1.19,1.19,0,0,1-.17-.47v-.05c0-.08-.84-.17-.88-.26a3.2,3.2,0,0,1,0-1.12c.09-.44,0-.52,0-.52a1.58,1.58,0,0,0-.47-.26,5.31,5.31,0,0,1-1.13-.44,2.09,2.09,0,0,1-1.17-1.3,2.31,2.31,0,0,1,.35-1.77c.39-.7.82-1.39,1.21-2.08s1-1.65,1.47-2.47a2.53,2.53,0,0,0,.09-1v-.39a4.19,4.19,0,0,0-.09-.7,4,4,0,0,1-.08-1.6v0a29.27,29.27,0,0,1,1.43-4,10.85,10.85,0,0,1,7.36-6.07,20.51,20.51,0,0,1,11-.34c4.89,1.3,10.22,5.63,10.22,11.74a14.43,14.43,0,0,1-1.3,6c-2.21,4.64-2.64,6.76-1.43,11.87a.25.25,0,0,1,0,.18,5,5,0,0,0,.65,1.25l1.86,2.17a.86.86,0,0,1-1.3,1.13L947,264.91c0-.05,0-.09-.08-.09a5.34,5.34,0,0,1-.91-2.08c-1.39-5.5-.87-8,1.47-13a12.59,12.59,0,0,0,1.13-5.24c0-5.2-4.64-8.93-9-10.18a18.39,18.39,0,0,0-10.1.34,8.88,8.88,0,0,0-6.24,5.12,23.76,23.76,0,0,0-1.3,3.72,3.57,3.57,0,0,0,.09.87,7.35,7.35,0,0,1,.13,1v.34a3.84,3.84,0,0,1-.3,1.95c-.48.83-1,1.69-1.48,2.52s-.82,1.38-1.21,2a1.11,1.11,0,0,0-.17.44h0s0,.08.34.26a4.51,4.51,0,0,0,.78.3h.05a2.12,2.12,0,0,1,1.6,2.77c0,.22.79.31.83.52a.68.68,0,0,1,.39.31.77.77,0,0,1,0,1c-.17.26-.88.52-.92.56s-.13-.08,0,0l.21.21a2.79,2.79,0,0,1,.48,2.08c0,1.65.26,1.87,1.48,2a15.65,15.65,0,0,0,2.81-.09c.26,0,.52,0,.78-.09a2.25,2.25,0,0,1,2.73,1.35c.57,1.47,1.13,3,1.61,4.55a4.45,4.45,0,0,1,.21,1.12c0,.13,0,.3.09.43v.31a5.61,5.61,0,0,1-.52,1.51A.67.67,0,0,1,931.24,272.4Z" transform="translate(-8.63 -4.47)"/><polygon class="cls-31" points="800.69 224.54 787.57 224.54 790.46 237.89 800.69 224.54"/><polygon class="cls-31" points="791.56 338.06 800.35 331.56 791.8 324.05 791.56 338.06"/><polygon class="cls-31" points="817.69 127.47 830.31 118.13 818.03 107.35 817.69 127.47"/><polygon class="cls-31" points="505.55 127.47 518.17 118.13 505.89 107.35 505.55 127.47"/><polygon class="cls-31" points="275.22 128.17 287.84 118.83 275.56 108.05 275.22 128.17"/><polygon class="cls-31" points="649.33 208.14 655.84 216.93 663.35 208.38 649.33 208.14"/></svg>