<svg xmlns="http://www.w3.org/2000/svg" viewBox="0 0 1686.73 1296.88"><defs><style>.cls-1{isolation:isolate;}.cls-2,.cls-8{font-size:18px;}.cls-10,.cls-2,.cls-3{fill:#3c3c3b;}.cls-2{font-family:Poppins-SemiBold, Poppins;font-weight:600;}.cls-3,.cls-4,.cls-6,.cls-9{mix-blend-mode:multiply;}.cls-4{fill:#4575ba;}.cls-5{font-size:28.12px;}.cls-12,.cls-13,.cls-14,.cls-5,.cls-7,.cls-8{fill:#fff;}.cls-14,.cls-5,.cls-7,.cls-8{font-family:Poppins-Bold, Poppins;font-weight:700;}.cls-6{fill:#662483;}.cls-13,.cls-7{font-size:21.58px;}.cls-11{fill:none;stroke:#fff;stroke-miterlimit:10;stroke-width:3px;}.cls-13{font-family:Poppins-Medium, Poppins;font-weight:500;}.cls-14{font-size:30.21px;}</style></defs><title>stages of change</title><g class="cls-1"><g id="Layer_1" data-name="Layer 1"><text class="cls-2" transform="translate(286.31 234.47)">Domestic Abuse</text><text class="cls-2" transform="translate(1279.06 220.4)">Alcohol &amp; Drugs</text><circle class="cls-3" cx="840.42" cy="701.82" r="166.06"/><circle class="cls-4" cx="1066.75" cy="853.51" r="162.23"/><text class="cls-5" transform="translate(964.03 863.17)">Contemplation</text><circle class="cls-4" cx="996.8" cy="1102.06" r="162.23"/><text class="cls-5" transform="translate(931.46 1122.87)">Preparation</text><circle class="cls-4" cx="722.84" cy="1106.52" r="162.23"/><text class="cls-5" transform="translate(665.13 1122.29)">Action</text><circle class="cls-6" cx="620.04" cy="864.65" r="162.23"/><text class="cls-5" transform="translate(523.71 874.32)">Maintenance</text><circle class="cls-3" cx="1353.8" cy="339.24" r="95.29"/><text class="cls-7" transform="translate(1295.27 345.69)">No, not me</text><circle class="cls-4" cx="1487.82" cy="431.51" r="95.29"/><text class="cls-8" transform="translate(1436.63 435.32)">Well, maybe</text><circle class="cls-4" cx="1258.52" cy="589.43" r="95.29"/><text class="cls-8" transform="translate(1204.93 596.2)">Let’s do this</text><circle class="cls-4" cx="1441.77" cy="589.96" r="95.29"/><text class="cls-8" transform="translate(1358.41 594.01) rotate(1.25)">What do I do now?</text><circle class="cls-6" cx="1213.57" cy="428.55" r="95.29"/><text class="cls-8" transform="translate(1157.34 435.32)">It is possible</text><g class="cls-9"><path class="cls-10" d="M1377.71,482l-1.79-10.39a1.75,1.75,0,0,0-1.65-1.43h-15.4a1.62,1.62,0,0,0-1.64,1.43L1355.44,482a11.6,11.6,0,0,0,1.64,8.31,11.1,11.1,0,0,0,8.24,4.94v11.46a.86.86,0,0,1-.79.86l-4.87.64a.92.92,0,0,0-.79.86.87.87,0,0,0,.86.86h13.54a.87.87,0,0,0,.86-.86.86.86,0,0,0-.79-.86l-4.8-.57a.91.91,0,0,1-.78-.86V495.28a11.41,11.41,0,0,0,10-13.32Zm-7.52-2.73c-5.16-.43-6.59,3.51-12,1.87l1.43-8.38h14L1375,481A9.4,9.4,0,0,0,1370.19,479.23Z"/><path class="cls-10" d="M1344,454.74v-4.23h-7.81v4.23a10,10,0,0,1-3.22,7.38h0a10,10,0,0,0-3.23,7.37v38.18a2.23,2.23,0,0,0,2.22,2.22h16.41a2.23,2.23,0,0,0,2.22-2.22v-38.1a9.91,9.91,0,0,0-3.23-7.38A10,10,0,0,1,1344,454.74Zm2.5,44.12a1.46,1.46,0,0,1-1.5,1.5h-9.74a1.51,1.51,0,0,1-1.51-1.5V478.52a1.52,1.52,0,0,1,1.51-1.51H1345a1.51,1.51,0,0,1,1.5,1.51Z"/><path class="cls-10" d="M1344,443.21a1.29,1.29,0,0,0-1.29-1.29h-5.3a1.28,1.28,0,0,0-1.29,1.29v4.51h7.8v-4.51Z"/></g><circle class="cls-3" cx="357.65" cy="347.53" r="95.29"/><text class="cls-7" transform="translate(307.37 353.98)">Unaware</text><circle class="cls-4" cx="503.16" cy="461.23" r="95.29"/><text class="cls-8" transform="translate(477.38 468)">Aware</text><circle class="cls-4" cx="364.22" cy="584.59" r="95.29"/><text class="cls-8" transform="translate(330.37 597.04) rotate(1.25)">Leaving</text><circle class="cls-6" cx="221.27" cy="471.04" r="95.29"/><text class="cls-8" transform="translate(168.73 477.81)">Recovering</text><path class="cls-10" d="M357,467.58a6.38,6.38,0,1,0-8.74-2.23A6.38,6.38,0,0,0,357,467.58Z"/><path class="cls-10" d="M347,485.09c1-3.82,2.91-13.42-.34-18.34a6.74,6.74,0,0,0-7-2.54c-8.16,2.22-10.52,14.7-11,20.88Z"/><path class="cls-10" d="M383.3,458.91a6.39,6.39,0,1,0-8.75-2.24A6.39,6.39,0,0,0,383.3,458.91Z"/><path class="cls-10" d="M400.74,485.09c-.19-5.7-4.16-21.82-13-24.47a6.57,6.57,0,0,0-6.79,2.42l-7.6,9.78-8.27-3.48a3.07,3.07,0,0,0-2.38,5.66l10.46,4.41a3.12,3.12,0,0,0,1.19.24,3.09,3.09,0,0,0,2.45-1.21l3.2-4.2,2.46,10.85Z"/><polygon class="cls-10" points="370.29 452.06 361.88 452.06 361.88 450.43 370.29 450.43 370.29 452.06"/><polygon class="cls-10" points="364.97 460.64 364.22 459.2 371 455.68 371.75 457.12 364.97 460.64"/><polygon class="cls-10" points="371.17 466.15 369.95 465.08 374.01 460.47 375.23 461.55 371.17 466.15"/><path class="cls-10" d="M859.38,883.67c-12.76,0-23.13,8.82-23.13,19.56a18.36,18.36,0,0,0,7.63,14.54,10.59,10.59,0,0,1-6.91,6,.87.87,0,0,0,0,1.67c3.57,1.43,11.32,1.43,17.64-3a33.74,33.74,0,0,0,4.89.48c12.76,0,23.25-8.82,23.25-19.67S872.14,883.67,859.38,883.67Zm.43,5.06a6,6,0,1,1-6,6A6,6,0,0,1,859.81,888.73Zm3,11.23c4.82,0,8.58,5.49,8.58,9.89v3.94a1,1,0,0,1-1,.93h-21a1,1,0,0,1-1-.93v-3.94c0-4.4,4.1-9.89,8.92-9.89"/><path class="cls-10" d="M847.65,938.78l-2.46,2.36-20.27-20.27,2.12-2.06a6,6,0,0,0-.72-7.63l-10.49-10.49a5.67,5.67,0,0,0-7.44-.64c-3.94,7.27-4.69,17.6,2.46,24.76l28.74,28.73c7.63,7.64,22.72,9.32,26.72,3.53"/><path class="cls-10" d="M865.94,957.58a5.81,5.81,0,0,0-.59-7.51l-10.5-10.49a5.8,5.8,0,0,0-7.51-.58"/><path class="cls-11" d="M1412.84,365.31s37.66,16.7,50.25,36.88"/><polygon class="cls-12" points="1459.29 395.76 1468.05 388.23 1468 397.03 1467.96 405.84 1459.25 404.56 1450.54 403.29 1459.29 395.76"/><path class="cls-11" d="M967.08,738.52s66.56,29.51,88.81,65.18"/><polygon class="cls-12" points="1049.18 792.34 1064.65 779.03 1064.57 794.59 1064.49 810.15 1049.1 807.9 1033.7 805.65 1049.18 792.34"/><path class="cls-11" d="M1058.18,937.89s-3,72.75-27.92,106.56"/><polygon class="cls-12" points="1038.35 1034.03 1056.42 1043.52 1041.92 1049.17 1027.43 1054.82 1023.86 1039.68 1020.28 1024.54 1038.35 1034.03"/><path class="cls-11" d="M910.69,1122.53s-70.85,16.81-110.15,1.89"/><polygon class="cls-12" points="812.76 1129.4 808.5 1149.36 799.15 1136.93 789.79 1124.5 803.4 1116.97 817.01 1109.44 812.76 1129.4"/><path class="cls-11" d="M676.2,1049.35s-34.37-64.19-30-106"/><polygon class="cls-12" points="644.51 956.44 624.13 957.43 633.75 945.21 643.38 932.98 654.14 944.21 664.9 955.45 644.51 956.44"/><path class="cls-11" d="M620,833.92s26.92-67.65,61.7-91.26"/><polygon class="cls-12" points="670.65 749.8 656.76 734.86 672.31 734.34 687.86 733.82 686.2 749.28 684.55 764.75 670.65 749.8"/><path class="cls-11" d="M1483,487.22s-7.23,40.55-23.82,57.59"/><polygon class="cls-12" points="1464.47 539.59 1473.88 546.3 1465.32 548.35 1456.76 550.41 1455.91 541.65 1455.07 532.89 1464.47 539.59"/><path class="cls-11" d="M1373.6,616.73s-40.79,5.81-62.16-4.62"/><polygon class="cls-12" points="1318.07 615.54 1314.64 626.57 1310.01 619.08 1305.38 611.59 1313.44 608.05 1321.5 604.51 1318.07 615.54"/><path class="cls-11" d="M1254.94,541.89s-22.49-34.51-22.06-58.29"/><polygon class="cls-12" points="1232.57 491.06 1221.12 492.6 1225.95 485.25 1230.78 477.89 1237.4 483.7 1244.01 489.51 1232.57 491.06"/><path class="cls-11" d="M1241.43,399.7s20.09-36,41.34-46.64"/><polygon class="cls-12" points="1276.03 356.25 1269.33 346.84 1278.09 347.7 1286.85 348.55 1284.79 357.11 1282.72 365.66 1276.03 356.25"/><text class="cls-2" transform="translate(806.3 52.09)">Excercise</text><circle class="cls-3" cx="850.52" cy="166.43" r="95.29"/><text class="cls-13" transform="translate(797.39 172.89)">Not ready</text><circle class="cls-4" cx="984.54" cy="258.71" r="95.29"/><text class="cls-8" transform="translate(926.69 262.51)">Getting ready</text><circle class="cls-4" cx="755.24" cy="416.62" r="95.29"/><text class="cls-8" transform="translate(725 423.39)">Action</text><circle class="cls-4" cx="938.49" cy="417.16" r="95.29"/><text class="cls-8" transform="translate(909.22 422.38) rotate(1.25)">Ready</text><circle class="cls-6" cx="710.28" cy="255.74" r="95.29"/><text class="cls-8" transform="translate(658.4 262.51)">Continuing</text><path class="cls-11" d="M909.56,192.5s37.66,16.7,50.25,36.88"/><polygon class="cls-12" points="956.01 222.96 964.77 215.43 964.72 224.23 964.68 233.03 955.97 231.76 947.26 230.49 956.01 222.96"/><path class="cls-11" d="M979.68,314.41S972.45,355,955.86,372"/><polygon class="cls-12" points="961.19 366.79 970.59 373.49 962.04 375.55 953.48 377.61 952.63 368.84 951.79 360.08 961.19 366.79"/><path class="cls-11" d="M870.32,443.93s-40.79,5.81-62.16-4.63"/><polygon class="cls-12" points="814.79 442.74 811.36 453.76 806.73 446.27 802.1 438.79 810.16 435.25 818.22 431.71 814.79 442.74"/><path class="cls-11" d="M751.65,369.09s-22.49-34.52-22-58.3"/><polygon class="cls-12" points="729.28 318.25 717.84 319.8 722.67 312.44 727.5 305.08 734.11 310.89 740.73 316.7 729.28 318.25"/><path class="cls-11" d="M738.15,226.9s20.09-36,41.34-46.64"/><polygon class="cls-12" points="772.74 183.45 766.05 174.04 774.81 174.89 783.57 175.74 781.5 184.3 779.44 192.85 772.74 183.45"/><path class="cls-11" d="M402.09,376.16s37.66,16.7,50.25,36.88"/><polygon class="cls-12" points="448.54 406.62 457.29 399.08 457.25 407.89 457.2 416.69 448.49 415.42 439.78 414.14 448.54 406.62"/><path class="cls-11" d="M462.06,509.1S436.8,541.64,414.18,549"/><polygon class="cls-12" points="421.33 546.86 426.54 557.17 418 555.01 409.47 552.85 412.8 544.7 416.13 536.56 421.33 546.86"/><path class="cls-11" d="M305.11,551.42s-36.23-19.61-47.19-40.71"/><polygon class="cls-12" points="261.2 517.41 251.88 524.23 252.62 515.46 253.35 506.69 261.94 508.64 270.52 510.59 261.2 517.41"/><path class="cls-11" d="M256.82,414.72s15.85-34.67,35.74-46.55"/><polygon class="cls-12" points="286.22 371.76 278.5 363.93 287.3 363.79 296.1 363.65 295.02 371.62 293.94 379.58 286.22 371.76"/><polygon class="cls-10" points="847.43 337.21 822.64 319.27 815.61 305.58 817.29 291.71 827.63 284.12 837.62 284.12 848.38 290.41 856.49 285.79 860.93 283.38 871.85 285.39 880.54 295.41 881.28 306.13 878.69 313.9 862.04 328.15 847.43 337.21"/><path class="cls-12" d="M879.53,302.11c0,10.89-6.27,16.72-31.15,33.55C831.15,323.94,823,318,819.49,311.49h18.32l2.25,2.46a1.21,1.21,0,0,0,1.16.35,1.06,1.06,0,0,0,.88-.77l2-10.29,4.45,22.07a1,1,0,0,0,1.1.77h0a1,1,0,0,0,1.09-.77l3.72-16.06.44,1.13h.77a21,21,0,0,0,0-3.07c-.14-.41-1-2.71-1.57-2.65a1,1,0,0,0-1,.77l-3.36,14.46-4.53-22.61a1,1,0,0,0-1.09-.78h0a1.05,1.05,0,0,0-1.09.78L840.35,311l-1.1-1.31c-.22-.23-.58-1.11-.94-1.11H818.53a15.74,15.74,0,0,1-1.24-6.44c0-11.49,8.17-16.72,15.69-16.72,7.73,0,13.86,6.13,13.94,6.19a2.26,2.26,0,0,0,1.53.59h0a2.28,2.28,0,0,0,1.53-.59c.07-.06,6.13-6.19,13.94-6.19,7.44,0,15.61,5.23,15.61,16.72m3.87,0c0-13-9.85-19.87-19.56-19.87-7.15,0-12.84,3.86-15.46,6.06-2.63-2.14-8.32-6.06-15.47-6.06-9.71,0-19.56,6.84-19.56,19.87s8.25,19.63,33.78,36.89a2.39,2.39,0,0,0,2.49,0c25.53-17.26,33.78-23.92,33.78-36.89m-26.18,7.94"/><path class="cls-12" d="M863.28,310.26h15l.9-2.78-23.49-.16s-1.27,3.09-.48,3.07Z"/><text class="cls-14" transform="translate(694.66 710.7)">Pre-contemplation</text></g></g></svg>